<svg width="50" height="50" viewBox="0 0 50 50" fill="none" xmlns="http://www.w3.org/2000/svg">
<circle cx="25" cy="25" r="25" fill="#E6C48C"/>
<g clip-path="url(#clip0_407_1193)">
<path d="M28.8672 34.375C28.8672 36.4463 27.6572 38.125 25.5859 38.125H17.8516C15.7803 38.125 14.5703 36.4463 14.5703 34.375M29.6875 29.6875C30.7229 29.6875 31.5625 30.7369 31.5625 32.0312C31.5625 33.3256 30.7229 34.375 29.6875 34.375H13.75C12.7146 34.375 11.875 33.3256 11.875 32.0312C11.875 30.7369 12.7146 29.6875 13.75 29.6875" stroke="white" stroke-width="1.875" stroke-miterlimit="10" stroke-linecap="round"/>
<path d="M13.75 26.1719V26.159C13.75 22.9363 16.3867 21.25 19.6094 21.25H23.8281C27.0508 21.25 29.6875 22.9492 29.6875 26.1719V26.159M24.1211 16.5625L24.557 20.3107M30.1562 29.6875H20.5064C20.3823 29.6876 20.2632 29.7369 20.1754 29.8246L18.6033 31.3967C18.5816 31.4185 18.5557 31.4358 18.5273 31.4476C18.4988 31.4593 18.4683 31.4654 18.4375 31.4654C18.4067 31.4654 18.3762 31.4593 18.3477 31.4476C18.3193 31.4358 18.2934 31.4185 18.2717 31.3967L16.6996 29.8246C16.6118 29.7369 16.4927 29.6876 16.3686 29.6875H13.2812C12.9083 29.6875 12.5506 29.5393 12.2869 29.2756C12.0232 29.0119 11.875 28.6542 11.875 28.2812C11.875 27.9083 12.0232 27.5506 12.2869 27.2869C12.5506 27.0232 12.9083 26.875 13.2812 26.875H30.1562C30.5292 26.875 30.8869 27.0232 31.1506 27.2869C31.4143 27.5506 31.5625 27.9083 31.5625 28.2812C31.5625 28.6542 31.4143 29.0119 31.1506 29.2756C30.8869 29.5393 30.5292 29.6875 30.1562 29.6875Z" stroke="white" stroke-width="1.875" stroke-miterlimit="10" stroke-linecap="round"/>
<path d="M25 38.125H33.1627C33.6357 38.125 34.0913 37.9462 34.438 37.6244C34.7848 37.3027 34.9971 36.8618 35.0324 36.39L37.1289 16.5625" stroke="white" stroke-width="1.875" stroke-miterlimit="10" stroke-linecap="round"/>
<path d="M31.5625 16.5625L32.5 12.8125L35.2539 11.875" stroke="white" stroke-width="1.875" stroke-linecap="round" stroke-linejoin="round"/>
<path d="M23.125 16.5625H38.125" stroke="white" stroke-width="1.875" stroke-miterlimit="10" stroke-linecap="round"/>
</g>
<defs>
<clipPath id="clip0_407_1193">
<rect width="30" height="30" fill="white" transform="translate(10 10)"/>
</clipPath>
</defs>
</svg>
