<svg width="50" height="50" viewBox="0 0 50 50" fill="none" xmlns="http://www.w3.org/2000/svg">
<circle cx="25" cy="25" r="25" fill="#9CA8B5"/>
<path d="M34.375 25.5912C34.375 23.1562 33.6025 21.345 31.7925 19.5362C31.558 19.3019 31.2399 19.1702 30.9083 19.1704C30.5768 19.1705 30.2588 19.3023 30.0244 19.5369C29.79 19.7714 29.6584 20.0895 29.6585 20.4211C29.6586 20.7527 29.7905 21.0706 30.025 21.305C31.3738 22.6525 31.875 23.8137 31.875 25.5912C31.8776 26.4943 31.7009 27.3888 31.3552 28.2231C31.0096 29.0573 30.5018 29.8147 29.8613 30.4512C28.6063 31.705 27.2638 32.3287 25.5763 32.4425L27.1338 30.8837C27.2498 30.7677 27.3419 30.6299 27.4047 30.4783C27.4675 30.3266 27.4998 30.1641 27.4998 30C27.4998 29.8359 27.4675 29.6733 27.4047 29.5217C27.3419 29.3701 27.2498 29.2323 27.1338 29.1162C27.0177 29.0002 26.88 28.9081 26.7283 28.8453C26.5767 28.7825 26.4142 28.7502 26.25 28.7502C26.0859 28.7502 25.9234 28.7825 25.7718 28.8453C25.6201 28.9081 25.4823 29.0002 25.3663 29.1162L20.7325 33.75L25.3663 38.3837C25.4821 38.5002 25.6198 38.5927 25.7715 38.6557C25.9231 38.7188 26.0858 38.7513 26.25 38.7513C26.4143 38.7513 26.5769 38.7188 26.7286 38.6557C26.8803 38.5927 27.018 38.5002 27.1338 38.3837C27.3681 38.1493 27.4998 37.8314 27.4998 37.5C27.4998 37.1685 27.3681 36.8507 27.1338 36.6162L25.4625 34.9462C27.8663 34.8437 29.89 33.9562 31.6288 32.22C32.5021 31.3516 33.1946 30.3186 33.666 29.1807C34.1373 28.0429 34.3784 26.8229 34.375 25.5912ZM18.125 25.625C18.125 23.7887 18.84 22.0625 20.1388 20.7637C21.4 19.5025 22.7538 18.8787 24.46 18.7712L22.8663 20.365C22.6905 20.5395 22.5705 20.7624 22.5217 21.0052C22.4729 21.2481 22.4975 21.5 22.5922 21.7289C22.6869 21.9577 22.8476 22.1533 23.0538 22.2906C23.26 22.4279 23.5023 22.5008 23.75 22.5C24.0815 22.4999 24.3994 22.3682 24.6338 22.1337L29.2675 17.5L24.6338 12.8662C24.5177 12.7502 24.3799 12.6581 24.2283 12.5953C24.0767 12.5325 23.9142 12.5002 23.75 12.5002C23.5859 12.5002 23.4234 12.5325 23.2718 12.5953C23.1201 12.6581 22.9823 12.7502 22.8663 12.8662C22.7502 12.9823 22.6582 13.1201 22.5954 13.2717C22.5325 13.4233 22.5002 13.5859 22.5002 13.75C22.5002 13.9141 22.5325 14.0766 22.5954 14.2283C22.6582 14.3799 22.7502 14.5177 22.8663 14.6337L24.505 16.2725C22.1125 16.38 20.0988 17.2675 18.3713 18.9962C17.4979 19.8647 16.8055 20.8977 16.3341 22.0355C15.8627 23.1733 15.6217 24.3934 15.625 25.625C15.625 28.06 16.3975 29.8712 18.2075 31.68C18.3234 31.7964 18.4612 31.8887 18.6129 31.9517C18.7646 32.0147 18.9273 32.047 19.0915 32.0469C19.2558 32.0468 19.4184 32.0142 19.57 31.951C19.7217 31.8878 19.8593 31.7953 19.975 31.6787C20.0913 31.5627 20.1835 31.4248 20.2464 31.273C20.3093 31.1213 20.3416 30.9586 20.3416 30.7944C20.3416 30.6301 20.3093 30.4674 20.2464 30.3157C20.1835 30.1639 20.0913 30.0261 19.975 29.91C18.6263 28.5637 18.125 27.4025 18.125 25.625Z" fill="white"/>
</svg>
