<svg width="50" height="50" viewBox="0 0 50 50" fill="none" xmlns="http://www.w3.org/2000/svg">
<circle cx="25" cy="25" r="25" fill="#8A75A0"/>
<path d="M13.75 22.5H36.25M18.75 28.75H18.7625M23.75 28.75H26.25M13.75 20C13.75 19.0054 14.1451 18.0516 14.8483 17.3483C15.5516 16.6451 16.5054 16.25 17.5 16.25H32.5C33.4946 16.25 34.4484 16.6451 35.1517 17.3483C35.8549 18.0516 36.25 19.0054 36.25 20V30C36.25 30.9946 35.8549 31.9484 35.1517 32.6517C34.4484 33.3549 33.4946 33.75 32.5 33.75H17.5C16.5054 33.75 15.5516 33.3549 14.8483 32.6517C14.1451 31.9484 13.75 30.9946 13.75 30V20Z" stroke="white" stroke-width="2.5" stroke-linecap="round" stroke-linejoin="round"/>
</svg>
