<svg width="50" height="50" viewBox="0 0 50 50" fill="none" xmlns="http://www.w3.org/2000/svg">
<path d="M50 25C50 38.8071 38.8071 50 25 50C11.1929 50 0 38.8071 0 25C0 11.1929 11.1929 0 25 0C38.8071 0 50 11.1929 50 25Z" fill="#6F6F6F"/>
<path d="M31.25 27.5C31.5815 27.5 31.8995 27.3683 32.1339 27.1339C32.3683 26.8995 32.5 26.5815 32.5 26.25C32.5 25.9185 32.3683 25.6005 32.1339 25.3661C31.8995 25.1317 31.5815 25 31.25 25C30.9185 25 30.6005 25.1317 30.3661 25.3661C30.1317 25.6005 30 25.9185 30 26.25C30 26.5815 30.1317 26.8995 30.3661 27.1339C30.6005 27.3683 30.9185 27.5 31.25 27.5ZM31.25 32.5C31.5815 32.5 31.8995 32.3683 32.1339 32.1339C32.3683 31.8995 32.5 31.5815 32.5 31.25C32.5 30.9185 32.3683 30.6005 32.1339 30.3661C31.8995 30.1317 31.5815 30 31.25 30C30.9185 30 30.6005 30.1317 30.3661 30.3661C30.1317 30.6005 30 30.9185 30 31.25C30 31.5815 30.1317 31.8995 30.3661 32.1339C30.6005 32.3683 30.9185 32.5 31.25 32.5ZM26.25 26.25C26.25 26.5815 26.1183 26.8995 25.8839 27.1339C25.6495 27.3683 25.3315 27.5 25 27.5C24.6685 27.5 24.3505 27.3683 24.1161 27.1339C23.8817 26.8995 23.75 26.5815 23.75 26.25C23.75 25.9185 23.8817 25.6005 24.1161 25.3661C24.3505 25.1317 24.6685 25 25 25C25.3315 25 25.6495 25.1317 25.8839 25.3661C26.1183 25.6005 26.25 25.9185 26.25 26.25ZM26.25 31.25C26.25 31.5815 26.1183 31.8995 25.8839 32.1339C25.6495 32.3683 25.3315 32.5 25 32.5C24.6685 32.5 24.3505 32.3683 24.1161 32.1339C23.8817 31.8995 23.75 31.5815 23.75 31.25C23.75 30.9185 23.8817 30.6005 24.1161 30.3661C24.3505 30.1317 24.6685 30 25 30C25.3315 30 25.6495 30.1317 25.8839 30.3661C26.1183 30.6005 26.25 30.9185 26.25 31.25ZM18.75 27.5C19.0815 27.5 19.3995 27.3683 19.6339 27.1339C19.8683 26.8995 20 26.5815 20 26.25C20 25.9185 19.8683 25.6005 19.6339 25.3661C19.3995 25.1317 19.0815 25 18.75 25C18.4185 25 18.1005 25.1317 17.8661 25.3661C17.6317 25.6005 17.5 25.9185 17.5 26.25C17.5 26.5815 17.6317 26.8995 17.8661 27.1339C18.1005 27.3683 18.4185 27.5 18.75 27.5ZM18.75 32.5C19.0815 32.5 19.3995 32.3683 19.6339 32.1339C19.8683 31.8995 20 31.5815 20 31.25C20 30.9185 19.8683 30.6005 19.6339 30.3661C19.3995 30.1317 19.0815 30 18.75 30C18.4185 30 18.1005 30.1317 17.8661 30.3661C17.6317 30.6005 17.5 30.9185 17.5 31.25C17.5 31.5815 17.6317 31.8995 17.8661 32.1339C18.1005 32.3683 18.4185 32.5 18.75 32.5Z" fill="white"/>
<path fill-rule="evenodd" clip-rule="evenodd" d="M18.75 12.1875C18.9986 12.1875 19.2371 12.2863 19.4129 12.4621C19.5887 12.6379 19.6875 12.8764 19.6875 13.125V14.0787C20.515 14.0625 21.4262 14.0625 22.4287 14.0625H27.57C28.5737 14.0625 29.485 14.0625 30.3125 14.0787V13.125C30.3125 12.8764 30.4113 12.6379 30.5871 12.4621C30.7629 12.2863 31.0014 12.1875 31.25 12.1875C31.4986 12.1875 31.7371 12.2863 31.9129 12.4621C32.0887 12.6379 32.1875 12.8764 32.1875 13.125V14.1587C32.5125 14.1837 32.8204 14.2154 33.1113 14.2537C34.5763 14.4512 35.7625 14.8662 36.6987 15.8012C37.6337 16.7375 38.0488 17.9238 38.2463 19.3888C38.4375 20.8138 38.4375 22.6325 38.4375 24.93V27.57C38.4375 29.8675 38.4375 31.6875 38.2463 33.1113C38.0488 34.5763 37.6337 35.7625 36.6987 36.6987C35.7625 37.6337 34.5763 38.0488 33.1113 38.2463C31.6863 38.4375 29.8675 38.4375 27.57 38.4375H22.4312C20.1337 38.4375 18.3137 38.4375 16.89 38.2463C15.425 38.0488 14.2387 37.6337 13.3025 36.6987C12.3675 35.7625 11.9525 34.5763 11.755 33.1113C11.5638 31.6863 11.5638 29.8675 11.5638 27.57V24.93C11.5638 22.6325 11.5638 20.8125 11.755 19.3888C11.9525 17.9238 12.3675 16.7375 13.3025 15.8012C14.2387 14.8662 15.425 14.4512 16.89 14.2537C17.1817 14.2154 17.4896 14.1837 17.8138 14.1587V13.125C17.8138 12.8766 17.9124 12.6383 18.0879 12.4625C18.2634 12.2867 18.5016 12.1878 18.75 12.1875ZM17.1375 16.1125C15.8813 16.2812 15.1563 16.5988 14.6275 17.1275C14.0988 17.6563 13.7813 18.3813 13.6125 19.6375C13.5842 19.85 13.56 20.0746 13.54 20.3112H36.46C36.44 20.0746 36.4158 19.8496 36.3875 19.6362C36.2188 18.38 35.9013 17.655 35.3725 17.1263C34.8438 16.5975 34.1188 16.28 32.8613 16.1112C31.5775 15.9387 29.8837 15.9363 27.5 15.9363H22.5C20.1163 15.9363 18.4238 15.94 17.1375 16.1125ZM13.4375 25C13.4375 23.9325 13.4375 23.0037 13.4538 22.1875H36.5462C36.5625 23.0037 36.5625 23.9325 36.5625 25V27.5C36.5625 29.8837 36.56 31.5775 36.3875 32.8625C36.2188 34.1188 35.9013 34.8438 35.3725 35.3725C34.8438 35.9013 34.1188 36.2188 32.8613 36.3875C31.5775 36.56 29.8837 36.5625 27.5 36.5625H22.5C20.1163 36.5625 18.4238 36.56 17.1375 36.3875C15.8813 36.2188 15.1563 35.9013 14.6275 35.3725C14.0988 34.8438 13.7813 34.1188 13.6125 32.8613C13.44 31.5775 13.4375 29.8837 13.4375 27.5V25Z" fill="white"/>
</svg>
