<svg width="50" height="50" viewBox="0 0 50 50" fill="none" xmlns="http://www.w3.org/2000/svg">
<circle cx="25" cy="25" r="25" fill="#B9A7C3"/>
<path d="M36.9918 26.5305C36.6852 26.2942 36.3338 26.1228 35.9589 26.0267C35.5839 25.9306 35.1934 25.9118 34.8109 25.9715C37.0117 23.7496 38.125 21.5406 38.125 19.375C38.125 16.273 35.6301 13.75 32.5633 13.75C31.7495 13.7449 30.9445 13.9179 30.2048 14.257C29.4651 14.5961 28.8085 15.093 28.2812 15.7129C27.754 15.093 27.0974 14.5961 26.3577 14.257C25.618 13.9179 24.813 13.7449 23.9992 13.75C20.9324 13.75 18.4375 16.273 18.4375 19.375C18.4375 20.6641 18.8172 21.9168 19.6164 23.2422C18.9618 23.408 18.3645 23.7482 17.8879 24.2266L15.2371 26.875H11.875C11.3777 26.875 10.9008 27.0725 10.5492 27.4242C10.1975 27.7758 10 28.2527 10 28.75V33.4375C10 33.9348 10.1975 34.4117 10.5492 34.7633C10.9008 35.1149 11.3777 35.3125 11.875 35.3125H24.0625C24.1391 35.3124 24.2155 35.303 24.2898 35.2844L31.7898 33.4094C31.8376 33.3979 31.8843 33.3823 31.9293 33.3625L36.4844 31.4242L36.5359 31.4008C36.9737 31.182 37.3486 30.8554 37.6253 30.4517C37.9019 30.0481 38.0713 29.5806 38.1173 29.0934C38.1634 28.6062 38.0847 28.1152 37.8886 27.6669C37.6925 27.2185 37.3855 26.8274 36.9965 26.5305H36.9918ZM23.9992 15.625C24.7253 15.6144 25.4381 15.8205 26.0464 16.2172C26.6547 16.6138 27.1309 17.1828 27.4141 17.8516C27.4847 18.0235 27.6048 18.1706 27.7593 18.2741C27.9137 18.3776 28.0954 18.4328 28.2812 18.4328C28.4671 18.4328 28.6488 18.3776 28.8032 18.2741C28.9577 18.1706 29.0778 18.0235 29.1484 17.8516C29.4316 17.1828 29.9078 16.6138 30.5161 16.2172C31.1244 15.8205 31.8372 15.6144 32.5633 15.625C34.5613 15.625 36.25 17.3418 36.25 19.375C36.25 21.6613 34.3996 24.2476 30.8992 26.8633L29.5996 27.1621C29.7137 26.6802 29.7172 26.1788 29.6099 25.6953C29.5026 25.2119 29.2873 24.759 28.9801 24.3706C28.6729 23.9822 28.2817 23.6684 27.836 23.4527C27.3902 23.237 26.9015 23.1249 26.4062 23.125H21.7984C20.7871 21.7609 20.3125 20.5609 20.3125 19.375C20.3125 17.3418 22.0012 15.625 23.9992 15.625ZM11.875 28.75H14.6875V33.4375H11.875V28.75ZM35.7145 29.7121L31.2613 31.6082L23.9453 33.4375H16.5625V28.2004L19.2145 25.5496C19.3879 25.3747 19.5944 25.2361 19.822 25.1417C20.0495 25.0474 20.2935 24.9992 20.5398 25H26.4062C26.7792 25 27.1369 25.1481 27.4006 25.4119C27.6643 25.6756 27.8125 26.0333 27.8125 26.4062C27.8125 26.7792 27.6643 27.1369 27.4006 27.4006C27.1369 27.6643 26.7792 27.8125 26.4062 27.8125H23.125C22.8764 27.8125 22.6379 27.9113 22.4621 28.0871C22.2863 28.2629 22.1875 28.5013 22.1875 28.75C22.1875 28.9986 22.2863 29.2371 22.4621 29.4129C22.6379 29.5887 22.8764 29.6875 23.125 29.6875H26.875C26.9456 29.6873 27.0159 29.6794 27.0848 29.6641L34.9363 27.8582L34.9727 27.8488C35.2123 27.7823 35.4682 27.8067 35.6909 27.9175C35.9136 28.0282 36.0876 28.2174 36.1792 28.4487C36.2708 28.6799 36.2737 28.9369 36.1872 29.1701C36.1008 29.4034 35.9311 29.5964 35.7109 29.7121H35.7145Z" fill="white"/>
</svg>
