<svg width="50" height="50" viewBox="0 0 50 50" fill="none" xmlns="http://www.w3.org/2000/svg">
<path d="M50 25C50 38.8071 38.8071 50 25 50C11.1929 50 0 38.8071 0 25C0 11.1929 11.1929 0 25 0C38.8071 0 50 11.1929 50 25Z" fill="#B65C5C"/>
<path d="M16.75 13C16.1533 13 15.581 13.2371 15.159 13.659C14.7371 14.081 14.5 14.6533 14.5 15.25V34.75C14.5 35.3467 14.7371 35.919 15.159 36.341C15.581 36.7629 16.1533 37 16.75 37H27.25C27.8467 37 28.419 36.7629 28.841 36.341C29.2629 35.919 29.5 35.3467 29.5 34.75V32.5C29.5 32.3011 29.421 32.1103 29.2803 31.9697C29.1397 31.829 28.9489 31.75 28.75 31.75C28.1305 31.75 27.7345 31.597 27.466 31.396C27.193 31.192 26.981 30.8805 26.83 30.4615C26.509 29.5795 26.5 28.411 26.5 27.25C26.5 27.1513 26.4805 27.0536 26.4427 26.9625C26.4048 26.8714 26.3494 26.7887 26.2795 26.719L25.8505 26.2885L24.031 24.469C23.3305 23.7685 23.125 23.299 23.086 23.0365C23.056 22.8265 23.119 22.6855 23.269 22.5415C23.59 22.234 23.8195 22.0255 24.079 21.9625C24.2335 21.9235 24.586 21.8965 25.219 22.5295L29.719 27.0295C29.8596 27.1703 30.0504 27.2495 30.2495 27.2497C30.348 27.2497 30.4456 27.2304 30.5367 27.1927C30.6278 27.1551 30.7105 27.0999 30.7803 27.0303C30.85 26.9606 30.9053 26.8779 30.9431 26.7869C30.9809 26.6959 31.0003 26.5983 31.0004 26.4998C31.0005 26.4012 30.9811 26.3036 30.9435 26.2126C30.9058 26.1215 30.8506 26.0387 30.781 25.969L29.5 24.6895V20.0605L33.34 23.9005C33.5492 24.1094 33.7151 24.3575 33.8284 24.6306C33.9416 24.9037 33.9999 25.1964 34 25.492V36.25C34 36.4489 34.079 36.6397 34.2197 36.7803C34.3603 36.921 34.5511 37 34.75 37C34.9489 37 35.1397 36.921 35.2803 36.7803C35.421 36.6397 35.5 36.4489 35.5 36.25V25.492C35.4998 24.4979 35.1049 23.5445 34.402 22.8415L29.5 17.9395V15.25C29.5 14.6533 29.2629 14.081 28.841 13.659C28.419 13.2371 27.8467 13 27.25 13H16.75ZM28 23.1895L26.281 21.469C25.414 20.602 24.55 20.3035 23.7235 20.5045C23.5611 20.5444 23.4036 20.6022 23.254 20.677C22.5835 20.4824 21.8769 20.4466 21.1901 20.5722C20.5033 20.6979 19.8552 20.9816 19.297 21.401C18.7388 21.8204 18.2858 22.3639 17.974 22.9885C17.6621 23.6132 17.4998 24.3018 17.5 25C17.4999 25.8699 17.752 26.7212 18.2257 27.4508C18.6995 28.1804 19.3745 28.7571 20.1692 29.111C20.9638 29.465 21.8441 29.581 22.7033 29.445C23.5625 29.3091 24.3639 28.927 25.0105 28.345C25.036 29.212 25.123 30.16 25.42 30.9745C25.642 31.585 25.996 32.1685 26.566 32.5945L26.575 32.6035C26.1182 32.7471 25.7192 33.0328 25.436 33.4188C25.1527 33.8048 25 34.2712 25 34.75V35.5H19V34.75C19 34.1533 18.7629 33.581 18.341 33.159C17.919 32.7371 17.3467 32.5 16.75 32.5H16V17.5H16.75C17.3467 17.5 17.919 17.2629 18.341 16.841C18.7629 16.419 19 15.8467 19 15.25V14.5H25V15.25C25 15.8467 25.2371 16.419 25.659 16.841C26.081 17.2629 26.6533 17.5 27.25 17.5H28V23.1895ZM28 34.7635C27.9965 34.9601 27.9159 35.1474 27.7756 35.2851C27.6353 35.4229 27.4466 35.5 27.25 35.5H26.5V34.75C26.5 34.5511 26.579 34.3603 26.7197 34.2197C26.8603 34.079 27.0511 34 27.25 34H28V34.7635ZM19 25C19 24.2371 19.2907 23.5028 19.8129 22.9466C20.3351 22.3904 21.0496 22.0541 21.811 22.006C21.625 22.351 21.5305 22.771 21.6025 23.2555C21.709 23.9785 22.1695 24.73 22.969 25.5295L24.3295 26.89C23.9389 27.3713 23.4089 27.7198 22.8122 27.8876C22.2155 28.0554 21.5815 28.0343 20.9973 27.8271C20.4131 27.6199 19.9074 27.2369 19.5498 26.7307C19.1921 26.2244 19.0001 25.6198 19 25ZM17.5 14.5V15.25C17.5 15.4489 17.421 15.6397 17.2803 15.7803C17.1397 15.921 16.9489 16 16.75 16H16V15.25C16 15.0511 16.079 14.8603 16.2197 14.7197C16.3603 14.579 16.5511 14.5 16.75 14.5H17.5ZM16 34H16.75C16.9489 34 17.1397 34.079 17.2803 34.2197C17.421 34.3603 17.5 34.5511 17.5 34.75V35.5H16.75C16.5511 35.5 16.3603 35.421 16.2197 35.2803C16.079 35.1397 16 34.9489 16 34.75V34ZM28 16H27.25C27.0511 16 26.8603 15.921 26.7197 15.7803C26.579 15.6397 26.5 15.4489 26.5 15.25V14.5H27.25C27.4489 14.5 27.6397 14.579 27.7803 14.7197C27.921 14.8603 28 15.0511 28 15.25V16Z" fill="white"/>
</svg>
