<svg width="50" height="50" viewBox="0 0 50 50" fill="none" xmlns="http://www.w3.org/2000/svg">
<path d="M50 25C50 38.8071 38.8071 50 25 50C11.1929 50 0 38.8071 0 25C0 11.1929 11.1929 0 25 0C38.8071 0 50 11.1929 50 25Z" fill="#708BD8"/>
<path d="M17.5625 32.2188C17.1458 31.9896 16.8229 31.6825 16.5938 31.2975C16.3646 30.9125 16.25 30.48 16.25 30V24L13.25 22.3438C13.0208 22.2188 12.8542 22.0625 12.75 21.875C12.6458 21.6875 12.5938 21.4792 12.5938 21.25C12.5938 21.0208 12.6458 20.8125 12.75 20.625C12.8542 20.4375 13.0208 20.2812 13.25 20.1562L23.8125 14.4062C24 14.3021 24.1929 14.2237 24.3913 14.1712C24.5896 14.1187 24.7925 14.0929 25 14.0937C25.2075 14.0946 25.4108 14.1208 25.61 14.1725C25.8092 14.2242 26.0017 14.3021 26.1875 14.4062L38.0938 20.9062C38.3021 21.0104 38.4638 21.1617 38.5788 21.36C38.6938 21.5583 38.7508 21.7717 38.75 22V30C38.75 30.3542 38.63 30.6513 38.39 30.8913C38.15 31.1313 37.8533 31.2508 37.5 31.25C37.1467 31.2492 36.85 31.1292 36.61 30.89C36.37 30.6508 36.25 30.3542 36.25 30V22.625L33.75 24V30C33.75 30.4792 33.6354 30.9117 33.4062 31.2975C33.1771 31.6833 32.8542 31.9904 32.4375 32.2188L26.1875 35.5938C26 35.6979 25.8075 35.7763 25.61 35.8288C25.4125 35.8813 25.2092 35.9071 25 35.9062C24.7908 35.9054 24.5875 35.8796 24.39 35.8288C24.1925 35.7779 24 35.6996 23.8125 35.5938L17.5625 32.2188ZM25 25.875L33.5625 21.25L25 16.625L16.4375 21.25L25 25.875ZM25 33.4062L31.25 30.0312V25.3125L26.2188 28.0938C26.0312 28.1979 25.8333 28.2763 25.625 28.3288C25.4167 28.3813 25.2083 28.4071 25 28.4062C24.7917 28.4054 24.5833 28.3796 24.375 28.3288C24.1667 28.2779 23.9688 28.1996 23.7812 28.0938L18.75 25.3125V30.0312L25 33.4062Z" fill="white"/>
</svg>
