<svg width="50" height="50" viewBox="0 0 50 50" fill="none" xmlns="http://www.w3.org/2000/svg">
<path d="M50 25C50 38.8071 38.8071 50 25 50C11.1929 50 0 38.8071 0 25C0 11.1929 11.1929 0 25 0C38.8071 0 50 11.1929 50 25Z" fill="#F1997C"/>
<path fill-rule="evenodd" clip-rule="evenodd" d="M17.5 15.625H32.5C34.4891 15.625 36.3968 16.4152 37.8033 17.8217C39.2098 19.2282 40 21.1359 40 23.125V28.75C40 30.7391 39.2098 32.6468 37.8033 34.0533C36.3968 35.4598 34.4891 36.25 32.5 36.25H17.5C15.5109 36.25 13.6032 35.4598 12.1967 34.0533C10.7902 32.6468 10 30.7391 10 28.75V23.125C10 21.1359 10.7902 19.2282 12.1967 17.8217C13.6032 16.4152 15.5109 15.625 17.5 15.625ZM17.5 17.5C16.0082 17.5 14.5774 18.0926 13.5225 19.1475C12.4676 20.2024 11.875 21.6332 11.875 23.125V28.75C11.875 30.2418 12.4676 31.6726 13.5225 32.7275C14.5774 33.7824 16.0082 34.375 17.5 34.375H32.5C33.9918 34.375 35.4226 33.7824 36.4775 32.7275C37.5324 31.6726 38.125 30.2418 38.125 28.75V23.125C38.125 21.6332 37.5324 20.2024 36.4775 19.1475C35.4226 18.0926 33.9918 17.5 32.5 17.5H17.5Z" fill="white"/>
<path d="M20.3125 21.25C20.0639 21.25 19.8254 21.3488 19.6496 21.5246C19.4738 21.7004 19.375 21.9389 19.375 22.1875V25H16.5625C16.3139 25 16.0754 25.0988 15.8996 25.2746C15.7238 25.4504 15.625 25.6889 15.625 25.9375C15.625 26.1861 15.7238 26.4246 15.8996 26.6004C16.0754 26.7762 16.3139 26.875 16.5625 26.875H19.375V29.6875C19.375 29.9361 19.4738 30.1746 19.6496 30.3504C19.8254 30.5262 20.0639 30.625 20.3125 30.625C20.5611 30.625 20.7996 30.5262 20.9754 30.3504C21.1512 30.1746 21.25 29.9361 21.25 29.6875V26.875H24.0625C24.3111 26.875 24.5496 26.7762 24.7254 26.6004C24.9012 26.4246 25 26.1861 25 25.9375C25 25.6889 24.9012 25.4504 24.7254 25.2746C24.5496 25.0988 24.3111 25 24.0625 25H21.25V22.1875C21.25 21.9389 21.1512 21.7004 20.9754 21.5246C20.7996 21.3488 20.5611 21.25 20.3125 21.25ZM34.375 23.125C34.375 23.6223 34.1775 24.0992 33.8258 24.4508C33.4742 24.8025 32.9973 25 32.5 25C32.0027 25 31.5258 24.8025 31.1742 24.4508C30.8225 24.0992 30.625 23.6223 30.625 23.125C30.625 22.6277 30.8225 22.1508 31.1742 21.7992C31.5258 21.4475 32.0027 21.25 32.5 21.25C32.9973 21.25 33.4742 21.4475 33.8258 21.7992C34.1775 22.1508 34.375 22.6277 34.375 23.125ZM32.5 28.75C32.5 29.2473 32.3025 29.7242 31.9508 30.0758C31.5992 30.4275 31.1223 30.625 30.625 30.625C30.1277 30.625 29.6508 30.4275 29.2992 30.0758C28.9475 29.7242 28.75 29.2473 28.75 28.75C28.75 28.2527 28.9475 27.7758 29.2992 27.4242C29.6508 27.0725 30.1277 26.875 30.625 26.875C31.1223 26.875 31.5992 27.0725 31.9508 27.4242C32.3025 27.7758 32.5 28.2527 32.5 28.75Z" fill="white"/>
</svg>
