<svg width="50" height="50" viewBox="0 0 50 50" fill="none" xmlns="http://www.w3.org/2000/svg">
<circle cx="25" cy="25" r="25" fill="#C8AD94"/>
<path d="M25 22.5C21.0412 22.5 17.6963 25.9569 16.6163 30.3969C16.1413 32.3494 16.8575 34.4219 18.6156 35.3956C20.0094 36.1675 22.0825 36.875 25 36.875C27.9175 36.875 29.9912 36.1675 31.385 35.3956C33.1431 34.4219 33.8588 32.3494 33.3838 30.3969C32.3038 25.9562 28.9588 22.5 25 22.5ZM11.875 21.5275C11.875 23.2538 12.9937 25 14.375 25C15.7563 25 16.875 23.2538 16.875 21.5275C16.875 19.8013 15.7563 18.75 14.375 18.75C12.9937 18.75 11.875 19.8019 11.875 21.5275ZM38.125 21.5275C38.125 23.2538 37.0063 25 35.625 25C34.2437 25 33.125 23.2538 33.125 21.5275C33.125 19.8013 34.2437 18.75 35.625 18.75C37.0063 18.75 38.125 19.8019 38.125 21.5275ZM18.4375 15.9025C18.4375 17.6288 19.5562 19.375 20.9375 19.375C22.3188 19.375 23.4375 17.6288 23.4375 15.9025C23.4375 14.1763 22.3188 13.125 20.9375 13.125C19.5562 13.125 18.4375 14.1769 18.4375 15.9025ZM31.5625 15.9025C31.5625 17.6288 30.4438 19.375 29.0625 19.375C27.6812 19.375 26.5625 17.6288 26.5625 15.9025C26.5625 14.1763 27.6812 13.125 29.0625 13.125C30.4438 13.125 31.5625 14.1769 31.5625 15.9025Z" stroke="white" stroke-width="1.5" stroke-linecap="round" stroke-linejoin="round"/>
</svg>
