<svg width="50" height="50" viewBox="0 0 50 50" fill="none" xmlns="http://www.w3.org/2000/svg">
<path d="M50 25C50 38.8071 38.8071 50 25 50C11.1929 50 0 38.8071 0 25C0 11.1929 11.1929 0 25 0C38.8071 0 50 11.1929 50 25Z" fill="#5C7F8A"/>
<path d="M33.75 31.25H36.25C37 31.25 37.5 30.75 37.5 30V26.25C37.5 25.125 36.625 24.125 35.625 23.875C33.375 23.25 30 22.5 30 22.5C30 22.5 28.375 20.75 27.25 19.625C26.625 19.125 25.875 18.75 25 18.75H16.25C15.5 18.75 14.875 19.25 14.5 19.875L12.75 23.5C12.5845 23.9828 12.5 24.4896 12.5 25V30C12.5 30.75 13 31.25 13.75 31.25H16.25M33.75 31.25C33.75 32.6307 32.6307 33.75 31.25 33.75C29.8693 33.75 28.75 32.6307 28.75 31.25M33.75 31.25C33.75 29.8693 32.6307 28.75 31.25 28.75C29.8693 28.75 28.75 29.8693 28.75 31.25M16.25 31.25C16.25 32.6307 17.3693 33.75 18.75 33.75C20.1307 33.75 21.25 32.6307 21.25 31.25M16.25 31.25C16.25 29.8693 17.3693 28.75 18.75 28.75C20.1307 28.75 21.25 29.8693 21.25 31.25M21.25 31.25H28.75" stroke="white" stroke-width="2" stroke-linecap="round" stroke-linejoin="round"/>
</svg>
