<svg width="70" height="68" viewBox="0 0 70 68" fill="none" xmlns="http://www.w3.org/2000/svg">
<path d="M69.0001 34C69.0001 52.7777 53.7777 68 35.0001 68C16.2224 68 1.00005 52.7777 1.00005 34C1.00005 15.2223 16.2224 0 35.0001 0C53.7777 0 69.0001 15.2223 69.0001 34Z" fill="#E0E8F9"/>
<path d="M15.4377 20.5501C13.9864 22.1587 11.8135 24.7285 10.7067 26.5382C5.19737 35.5385 5.86222 46.7264 13.7877 54.0457L13.7999 54.0577C16.2931 55.9961 19.2566 57.2468 22.3903 57.7173C24.3727 58.0149 26.3591 58.2643 28.3537 58.4653C34.9495 59.1249 41.8129 59.2656 48.4736 58.3728C50.8168 58.0592 53.0546 57.1664 54.9315 55.7387C55.114 55.602 55.2842 55.4612 55.4423 55.3165C63.3638 48.2023 64.1868 35.6149 59.2571 26.5422C58.2639 24.7124 55.7667 21.7325 54.2586 20.2324C53.7843 19.7659 52.0005 18.5635 51.8708 18.0648C51.7208 17.4897 54.2059 13.058 54.7167 12.2898C55.2356 11.8555 55.0451 13.3314 55.0978 13.621C55.9207 18.3463 56.995 21.2338 59.8612 25.006C60.0274 25.2232 60.2949 25.5891 60.376 25.8505C60.4004 25.9269 60.4733 25.9792 60.5625 25.9792C61.203 25.9792 62.0179 26.3532 63.1165 26.124C65.5935 25.6012 70.2434 23.0596 69.9921 20.1359C69.7083 16.8583 63.4327 11.6544 60.6598 10.0901C55.0613 6.92509 50.8857 11.2241 48.506 15.9213C48.4614 16.0098 48.36 16.046 48.2668 16.0098C39.648 12.5432 29.8658 12.7885 21.3403 16.3838C21.2471 16.424 21.1457 16.3838 21.1011 16.2953C19.2687 12.5311 15.9607 7.82592 11.0756 9.31792C8.3919 10.1423 1.44339 16.3074 0.360974 18.8932C-1.15927 22.5126 2.46093 24.628 5.36763 25.7942C7.38651 26.6026 7.60543 26.3452 9.50674 26.3613C9.57161 26.3613 9.63647 26.3291 9.67296 26.2728C10.4067 25.183 11.2702 24.3344 11.8945 23.1199C12.8432 21.278 13.8404 18.3704 14.1364 16.3235C14.3188 15.0647 14.2053 13.7336 14.5012 12.503C14.5418 12.3421 14.7566 12.3059 14.8458 12.4467C15.4093 13.3234 15.8512 14.4012 16.2485 15.3543C16.4836 15.9253 17.5093 18.286 17.4079 18.6479C17.3025 19.034 15.835 20.1037 15.4377 20.5461V20.5501Z" fill="#FAD0BB"/>
<path d="M14.343 44.3977C14.1444 44.2007 14.5052 43.8428 14.7038 44.0398C14.9025 44.2369 14.5417 44.5948 14.343 44.3977Z" fill="#FAD0BB"/>
<path d="M50.4112 36.6402C50.5531 36.608 50.5004 36.2983 50.618 36.3064C50.7275 36.3144 50.9383 36.5195 51.0518 36.4511C51.0964 36.423 51.3558 35.5664 51.8018 35.9243C51.8626 35.9726 51.5382 36.3948 51.6193 36.4632C51.7126 36.5396 52.1301 36.3023 52.3531 36.3828C52.9207 36.5838 52.722 37.9874 53.8733 37.2032C54.1247 37.0343 53.7517 36.4994 54.3395 36.6482C54.7571 37.3882 54.3841 38.7434 55.4463 38.5504C55.5841 38.5263 55.6976 38.655 55.6571 38.7877C55.3976 39.6563 56.3138 39.4231 56.5206 39.7166C56.6868 39.9499 55.9733 40.3601 55.9571 40.8909C55.953 41.084 56.626 41.4499 56.5368 42.1215C56.5165 42.2663 55.6652 42.5116 55.9774 42.7811C56.1071 42.8896 56.8125 42.5317 56.703 43.0505C55.8922 43.694 55.7057 43.6457 55.9976 44.3857C56.0503 44.5224 55.9368 44.6672 55.7909 44.643C55.4463 44.5827 55.3936 44.82 55.0449 45.0251C54.8625 45.1337 54.5422 45.1136 54.522 45.1297C54.1409 45.4675 55.1585 45.5358 55.0652 45.938C54.9152 46.5975 54.0193 46.1672 53.9747 46.2115C53.8896 46.2959 54.2504 46.7343 54.0801 46.9394C53.8936 47.1646 53.5044 47.0359 53.2977 47.1646C53.1882 47.2329 53.1761 47.5506 52.9531 47.627C52.499 47.7839 51.6274 47.442 51.3315 47.8362C51.2139 47.993 51.3072 48.6847 50.8856 48.371C50.8653 48.3549 50.8531 48.0694 50.691 47.9367C50.4437 47.7356 49.9856 47.5828 49.8396 47.4179C49.6775 47.2369 49.6937 46.867 49.5721 46.7825C49.5153 46.7423 48.3234 46.4085 48.2545 46.4085C47.9343 46.3964 47.0505 46.8871 47.4843 46.0707C47.5248 45.9943 47.9829 45.7852 48.0194 45.4071C48.0316 45.2704 47.8897 45.1658 47.7599 45.2141C47.2491 45.4071 47.5248 45.0573 47.1924 44.5425C46.8356 43.9916 46.0897 43.6336 46.1951 42.7288C46.2316 42.4231 46.5235 42.1014 46.5073 41.7797C46.4951 41.5062 45.7938 40.6014 45.9762 40.4325C46.0127 40.3963 46.337 40.4928 46.4748 40.4003C46.6613 40.2716 46.6654 39.7408 46.7059 39.7086C46.8113 39.6282 47.1802 39.9499 47.2491 39.8896C47.5856 39.596 46.9086 39.5075 46.8843 39.415C46.7019 38.6911 47.2167 38.8399 47.4113 38.5222C47.5937 38.2246 47.7154 37.2957 48.214 37.3882C48.364 37.4163 48.6964 37.8627 48.8829 37.7219C48.9275 37.6898 49.1545 36.7447 49.2802 36.6683C49.5072 36.5316 50.0707 36.7085 50.4072 36.6361L50.4112 36.6402Z" fill="#FAD0BB"/>
<path d="M44.7965 24.1894C45.4654 22.8864 49.3248 24.5875 49.7261 25.983C49.8802 26.5259 49.2761 26.7029 48.9234 26.5018C48.8707 26.4737 48.741 26.0715 48.5424 25.8986C47.9829 25.42 46.9735 24.8409 46.2316 24.7967C45.8586 24.7766 44.2492 25.2551 44.8005 24.1894H44.7965Z" fill="#FAD0BB"/>
<path d="M46.6208 32.5703C48.9194 32.5784 49.2802 38.5544 45.8992 37.8949C44.087 37.545 44.0587 32.5623 46.6208 32.5703Z" fill="#FAD0BB"/>
<path d="M28.8522 39.222C31.7994 34.2393 40.9493 33.821 44.1316 38.7434C44.9424 39.9981 45.5222 42.0411 44.8168 43.4285C42.6398 47.6874 37.0372 47.7638 32.8819 46.8388C28.9373 45.9621 26.5617 43.0947 28.8522 39.222Z" fill="#FAD0BB"/>
<path d="M26.0671 38.0919C23.3023 38.289 23.282 33.0489 25.755 32.703C28.3049 32.3491 28.6333 37.9069 26.0671 38.0919Z" fill="#FAD0BB"/>
<path d="M25.3861 24.0567C25.9536 23.9682 27.0766 23.9562 27.3482 24.5514C27.6603 25.235 25.4671 25.0742 25.0617 25.1787C24.7171 25.2672 24.1253 25.6975 23.8091 25.9227C23.582 26.0876 22.3942 27.5394 22.155 26.6225C21.8996 25.6452 24.5266 24.1894 25.382 24.0567H25.3861Z" fill="#FAD0BB"/>
<path d="M20.8861 36.4592C21.0848 36.6562 20.724 37.0142 20.5253 36.8171C20.3267 36.62 20.6875 36.2621 20.8861 36.4592Z" fill="#FAD0BB"/>
<path d="M18.474 37.0182C18.5227 36.8774 18.701 36.8372 18.7983 36.9498L18.9483 37.1187C19.0254 37.2032 19.1673 37.2193 19.2402 37.1308C19.6051 36.7005 21.101 37.6375 21.251 37.364C21.2915 37.2916 21.2024 36.9498 21.3078 36.6924C21.3726 36.5396 21.9969 36.1093 22.1591 36.2782C22.2199 36.3385 22.0172 36.978 22.3334 37.2796C22.4753 37.4163 23.5496 37.7702 23.7401 37.9472C23.9388 38.1321 23.8861 38.5222 24.0118 38.5986C24.2104 38.7273 24.3726 38.667 24.9158 39.0531C25.382 39.3869 25.836 39.3587 25.4631 39.9579C25.4023 40.0585 25.4428 40.1952 25.5563 40.2314C25.9617 40.3641 26.1441 41.084 25.6252 40.9714C25.5523 41.2931 25.8847 41.084 25.986 41.1523C26.2131 41.2971 25.6252 41.3212 25.6131 41.4258C25.5685 41.7918 26.059 42.1537 25.982 42.5599C25.9617 42.6765 26.0428 42.7811 26.1644 42.7891C26.5171 42.8092 26.3914 43.3039 26.132 43.7382C25.9901 43.9714 25.6536 44.0117 25.6131 44.1645C25.5158 44.5506 25.8442 45.0894 25.8036 45.1176C25.7631 45.1498 25.5239 45.0653 25.4144 45.1377C24.9847 45.4152 24.5793 45.4594 24.5428 45.4916C24.482 45.5479 24.5753 45.9661 24.4374 46.1954C24.2063 46.5734 23.5618 46.6981 23.6915 47.4501C23.7158 47.5989 23.5658 47.7195 23.4239 47.6552C23.0874 47.5024 22.7753 47.3857 22.6172 47.6673C22.5483 47.7919 22.3861 47.7839 22.301 47.6673C22.2888 47.6512 22.2767 47.6391 22.2564 47.6351C21.8834 47.5305 21.8672 47.7195 21.7983 47.8683C21.7132 48.0493 21.4375 47.989 21.4375 47.7879V47.2812C20.8294 47.1042 21.2186 47.7919 20.9834 47.8241C20.4726 47.9005 20.1443 47.5506 19.7024 47.4702C18.8916 47.3214 18.3484 47.8804 18.5308 46.7383C17.9632 46.6739 18.2997 47.1887 18.0281 47.2973C17.8416 47.3737 17.6916 47.1243 17.8375 46.9836C17.9551 46.871 18.0321 46.7825 17.8092 46.6458C17.27 46.312 16.4592 46.3039 15.9079 46.2074C15.77 46.1833 15.8714 45.8214 15.7052 45.6685C15.5876 45.564 15.6565 45.3669 15.8146 45.3468C15.9565 45.3307 16.0862 45.3106 16.1349 45.2583C16.1835 45.202 16.2281 44.9165 16.2687 44.631C16.2889 44.4661 16.1065 44.3615 15.9687 44.454C15.3484 44.8763 15.0322 43.6457 14.7849 43.4768C14.6268 43.3682 14.2944 43.3159 13.9822 43.2596C13.7633 43.2194 13.7795 42.9017 14.0025 42.8856C14.2052 42.8695 14.4079 42.8494 14.493 42.7288C14.639 42.5197 15.0241 41.0438 14.87 40.8105C14.7768 40.6657 14.0146 40.6376 13.9863 40.6054C13.7957 40.3923 14.4403 39.4995 14.8944 39.7046C14.9673 39.3788 14.5903 39.592 14.5336 39.5236C14.2255 39.1617 14.9065 39.1657 14.9065 39.0611C14.9065 38.8922 14.5903 38.3855 14.716 38.2608C14.8376 38.1402 15.7822 38.5986 15.9768 38.4217C16.1633 38.2528 16.1916 37.1831 17.0024 37.1951C17.1281 37.1951 17.12 37.6174 17.3754 37.7099C17.8416 37.8748 18.3281 37.4726 18.4862 37.0182H18.474Z" fill="#FAD0BB"/>
<path d="M59.257 26.538C58.2638 24.7082 55.7665 21.7282 54.2585 20.2282C53.7841 19.7617 52.0004 18.5592 51.8707 18.0606C51.7207 17.4855 54.2058 13.0537 54.7166 12.2856C55.2355 11.8513 55.0449 13.3272 55.0976 13.6167C55.9328 18.4145 57.0273 21.318 59.9948 25.1747C60.2016 25.4441 60.4327 25.5688 60.3516 25.9911C60.1084 26.0313 59.6786 26.5943 59.2611 26.534L59.257 26.538Z" fill="#F4A07F"/>
<path d="M9.61203 26.357C10.358 25.223 11.25 24.3626 11.8945 23.1199C12.8432 21.278 13.8404 18.3704 14.1364 16.3235C14.3391 14.928 14.1809 13.4438 14.6106 12.1087C15.2917 13.0336 15.7984 14.2763 16.2443 15.3581C16.4795 15.9291 17.5051 18.2898 17.4038 18.6517C17.2984 19.0378 15.8308 20.1075 15.4335 20.5499C13.9822 22.1585 11.8093 24.7283 10.7026 26.538C10.3377 26.6225 9.91608 26.3611 9.61203 26.357Z" fill="#F4A07F"/>
<path d="M44.8168 43.4285C42.6398 47.6874 37.0372 47.7638 32.8819 46.8388C28.9373 45.9621 26.5617 43.0947 28.8522 39.222C31.7994 34.2393 40.9493 33.821 44.1316 38.7434C44.9424 39.9981 45.5222 42.0411 44.8168 43.4285ZM33.0116 40.0906C32.3589 40.3038 32.3508 42.3025 32.7886 42.7811C34.2926 44.4219 35.2088 39.3748 33.0116 40.0906ZM40.2844 40.0906C39.5912 40.3199 39.3358 42.2542 40.1668 42.8575C41.9547 44.1524 42.1776 39.4673 40.2844 40.0906Z" fill="#F7B395"/>
<path d="M22.1591 36.2782C22.2199 36.3385 22.0172 36.978 22.3334 37.2796C22.4753 37.4163 23.5496 37.7702 23.7401 37.9472C23.9307 38.1241 23.8861 38.5222 24.0118 38.5986C24.2104 38.7273 24.3726 38.667 24.9158 39.0531C25.2806 39.3105 25.6333 39.3507 25.5969 39.6402C25.5604 39.9298 25.6496 40.2032 25.8198 40.4365C26.0063 40.6899 26.0023 41.0558 25.6212 40.9714C25.5482 41.2931 25.8806 41.084 25.982 41.1523C26.209 41.2971 25.6212 41.3212 25.609 41.4258C25.5725 41.7274 25.9009 42.029 25.9739 42.3548C26.0185 42.5518 26.1441 42.7087 26.2982 42.8374C26.4644 42.9741 26.3428 43.3763 26.1279 43.7382C25.986 43.9714 25.6496 44.0117 25.609 44.1645C25.5117 44.5506 25.8401 45.0894 25.7996 45.1176C25.759 45.1498 25.5198 45.0653 25.4104 45.1377C24.9807 45.4152 24.5753 45.4594 24.5388 45.4916C24.478 45.5479 24.5712 45.9661 24.4334 46.1954C24.1699 46.6297 23.3631 46.7302 23.7969 47.8241C23.2334 47.5989 22.6253 47.1324 22.5239 48.0051C22.224 48.0855 22.4185 47.6874 22.2564 47.6391C21.6199 47.4622 22.0213 48.1297 21.4375 48.0051V47.2852C20.8294 47.1083 21.2145 47.7959 20.9794 47.8281C20.4686 47.9045 20.1402 47.5546 19.6983 47.4742C18.8875 47.3254 18.3443 47.8844 18.5267 46.7423C17.8011 46.6619 18.5551 47.5225 17.6186 47.2812C17.7078 46.9715 18.1781 46.879 17.8011 46.6498C17.2619 46.316 16.4511 46.308 15.8997 46.2115C15.7011 46.1753 16.0052 45.4152 15.2511 45.6565C15.2552 45.2785 15.993 45.4152 16.1268 45.2624C16.147 45.2382 16.1673 45.1739 16.1876 45.0894C16.2524 44.7959 16.0092 44.5505 15.7052 44.5465C15.2471 44.5385 14.9917 43.6256 14.7768 43.4808C14.5133 43.3039 13.7836 43.2757 13.4349 43.1309C13.4876 42.7569 14.2903 43.0143 14.4849 42.7328C14.6309 42.5237 15.016 41.0478 14.8619 40.8145C14.7687 40.6698 14.0065 40.6416 13.9782 40.6094C13.7876 40.3963 14.4322 39.5035 14.8863 39.7086C14.9592 39.3829 14.5822 39.596 14.5255 39.5276C14.2174 39.1657 14.8984 39.1697 14.8984 39.0651C14.8984 38.8962 14.5822 38.3895 14.7079 38.2649C14.8336 38.1402 15.7741 38.6027 15.9687 38.4257C16.1633 38.2488 16.1835 37.1871 16.9943 37.1991C17.12 37.1991 17.1119 37.6214 17.3673 37.7139C17.9632 37.923 18.5835 37.2152 18.5308 36.6442L18.5713 36.6924C18.7983 36.9498 19.1429 37.0584 19.4875 37.0222C20.0429 36.9659 21.1253 37.5973 21.2551 37.3681C21.2956 37.2957 21.2064 36.9538 21.3118 36.6965C21.3767 36.5436 22.001 36.1133 22.1631 36.2822L22.1591 36.2782Z" fill="#F8C2AA"/>
<path d="M51.8018 35.9203C51.8626 35.9686 51.5382 36.3908 51.6193 36.4592C51.7126 36.5356 52.1301 36.2983 52.3531 36.3787C52.9207 36.5798 52.722 37.9834 53.8733 37.1992C54.1247 37.0302 53.7517 36.4954 54.3395 36.6442C54.7976 37.4565 54.3071 39.0048 55.7949 38.4458C55.1828 39.7126 56.2895 39.3869 56.5246 39.7126C56.6908 39.9459 55.9773 40.3561 55.9611 40.8869C55.9571 41.0799 56.63 41.4459 56.5409 42.1175C56.5206 42.2623 55.6692 42.5076 55.9814 42.777C56.1111 42.8856 56.8165 42.5277 56.7071 43.0465C55.7787 43.7865 55.6652 43.6135 56.1638 44.7637C55.4584 44.446 55.4949 44.7637 55.053 45.0211C54.8706 45.1297 54.5504 45.1095 54.5301 45.1256C54.149 45.4634 55.1666 45.5318 55.0733 45.934C54.9233 46.5935 54.0274 46.1632 53.9828 46.2074C53.8977 46.2919 54.2585 46.7302 54.0882 46.9353C53.9017 47.1605 53.5125 47.0319 53.3058 47.1605C53.1963 47.2289 53.1842 47.5466 52.9612 47.623C52.5071 47.7799 51.6355 47.438 51.3396 47.8321C51.222 47.989 51.3153 48.6807 50.8937 48.367C50.8734 48.3509 50.8612 48.0654 50.6991 47.9327C50.4518 47.7316 49.9937 47.5788 49.8477 47.4139C49.6856 47.2329 49.7018 46.8629 49.5802 46.7785C49.5234 46.7383 48.3316 46.4045 48.2626 46.4045C47.9424 46.3924 47.0586 46.8831 47.4924 46.0667C47.4964 46.0546 47.5126 46.0425 47.5289 46.0265C47.7883 45.8173 47.7762 45.4112 47.4843 45.2463C47.3667 45.1779 47.4316 44.9004 47.1964 44.5385C46.8397 43.9875 46.0938 43.6296 46.1992 42.7248C46.2356 42.4191 46.5275 42.0974 46.5113 41.7757C46.4992 41.5022 45.7978 40.5974 45.9802 40.4285C46.0167 40.3923 46.341 40.4888 46.4789 40.3963C46.6654 40.2676 46.6694 39.7367 46.71 39.7046C46.8154 39.6241 47.1843 39.9459 47.2532 39.8855C47.5897 39.592 46.9127 39.5035 46.8883 39.411C46.7059 38.6871 47.2208 38.8359 47.4154 38.5182C47.5978 38.2206 47.7194 37.2916 48.218 37.3841C48.368 37.4123 48.7005 37.8587 48.8869 37.7179C48.9315 37.6858 49.1586 36.7407 49.2842 36.6643C49.5113 36.5275 50.0748 36.7045 50.4112 36.6321C50.5531 36.5999 50.5004 36.2903 50.618 36.2983C50.7356 36.3064 50.9383 36.5115 51.0518 36.4431C51.0964 36.4149 51.3558 35.5584 51.8018 35.9163V35.9203ZM47.0748 40.4285C46.8762 40.2314 46.5154 40.5893 46.714 40.7864C46.9127 40.9834 47.2735 40.6255 47.0748 40.4285ZM47.3464 40.7904V40.9714C47.464 40.911 47.464 40.8507 47.3464 40.7904ZM52.9855 46.7423V46.9233C53.1031 46.8629 53.1031 46.8026 52.9855 46.7423ZM52.5274 47.1042C52.3288 46.9072 51.968 47.2651 52.1666 47.4622C52.3653 47.6592 52.7261 47.3013 52.5274 47.1042Z" fill="#F8C2AA"/>
<path d="M25.755 32.7071C28.3049 32.3532 28.6333 37.911 26.0671 38.096C23.3023 38.293 23.282 33.0529 25.755 32.7071Z" fill="#865C47"/>
<path d="M46.6208 32.5703C48.9194 32.5784 49.2802 38.5544 45.8992 37.8949C44.087 37.545 44.0587 32.5623 46.6208 32.5703Z" fill="#865C47"/>
<path d="M25.3861 24.0567C25.9536 23.9682 27.0766 23.9562 27.3482 24.5514C27.6603 25.235 25.4671 25.0742 25.0617 25.1787C24.7171 25.2672 24.1253 25.6975 23.8091 25.9227C23.582 26.0876 22.3942 27.5394 22.155 26.6225C21.8996 25.6452 24.5266 24.1894 25.382 24.0567H25.3861Z" fill="#936049"/>
<path d="M48.9234 26.5018C48.8707 26.4737 48.741 26.0715 48.5424 25.8986C47.9829 25.42 46.9735 24.8409 46.2316 24.7967C45.8586 24.7766 44.2492 25.2551 44.8005 24.1894C45.4694 22.8864 49.3288 24.5875 49.7302 25.983C49.8842 26.5259 49.2802 26.7029 48.9275 26.5018H48.9234Z" fill="#936049"/>
<path d="M14.7038 44.0358C14.9025 44.2328 14.5417 44.5908 14.343 44.3937C14.1444 44.1967 14.5052 43.8387 14.7038 44.0358Z" fill="#F8C2AA"/>
<path d="M20.8861 36.4592C21.0848 36.6562 20.724 37.0142 20.5253 36.8171C20.3267 36.62 20.6875 36.2621 20.8861 36.4592Z" fill="#F8C2AA"/>
<path d="M40.2844 40.0906C42.1776 39.4673 41.9587 44.1524 40.1668 42.8575C39.3358 42.2542 39.5912 40.3199 40.2844 40.0906Z" fill="#936049"/>
<path d="M33.0116 40.0906C35.2088 39.3708 34.2926 44.4178 32.7886 42.7811C32.3508 42.3065 32.3589 40.3038 33.0116 40.0906Z" fill="#936049"/>
<path d="M52.1666 47.4622C52.3653 47.6592 52.7261 47.3013 52.5274 47.1042C52.3288 46.9072 51.968 47.2651 52.1666 47.4622Z" fill="#FAD0BB"/>
<path d="M46.714 40.7864C46.9127 40.9834 47.2735 40.6255 47.0748 40.4285C46.8762 40.2314 46.5154 40.5893 46.714 40.7864Z" fill="#FAD0BB"/>
<path d="M47.3464 40.9714C47.464 40.911 47.464 40.8507 47.3464 40.7904V40.9714Z" fill="#FAD0BB"/>
<path d="M52.9855 46.9233C53.1031 46.8629 53.1031 46.8026 52.9855 46.7423V46.9233Z" fill="#FAD0BB"/>
<path d="M41.156 49.5775C41.7479 50.052 40.3533 51.1419 39.9641 51.3792C38.2047 52.465 35.2129 52.4811 33.4737 51.3309C33.0197 51.0293 31.2116 49.1351 32.217 48.8858C32.9346 48.7088 33.3602 49.7384 33.867 50.1284C35.1318 51.1017 37.3128 51.1539 38.7966 50.6512C39.4128 50.4421 40.7425 49.2397 41.156 49.5735V49.5775Z" fill="#936049"/>
</svg>
