<svg width="300" height="249" viewBox="0 0 300 249" fill="none" xmlns="http://www.w3.org/2000/svg">
<path d="M80.1934 174.479C107.149 128.598 190.727 124.727 219.843 170.094C227.255 181.639 232.557 200.477 226.092 213.218C206.199 252.422 154.979 253.12 117.021 244.631C80.9578 236.558 59.2534 210.145 80.1934 174.479Z" fill="#FBCFBB"/>
<path d="M226.092 213.218C206.199 252.422 154.979 253.12 117.021 244.631C79.0633 236.142 59.2534 210.145 80.1934 174.479C107.149 128.598 190.727 124.727 219.843 170.094C227.255 181.639 232.557 200.477 226.092 213.218ZM118.184 182.503C112.218 184.463 112.152 202.886 116.157 207.271C129.917 222.371 138.26 175.891 118.184 182.503ZM184.66 182.503C178.345 184.596 176.002 202.421 183.597 207.969C199.95 219.913 201.977 176.755 184.66 182.503Z" fill="#F6B296"/>
<path d="M183.597 207.969C199.95 219.913 201.977 176.755 184.66 182.503C178.329 184.596 176.002 202.421 183.597 207.969Z" fill="#935F49"/>
<path d="M118.184 182.503C138.26 175.891 129.901 222.371 116.157 207.271C112.168 202.886 112.218 184.48 118.184 182.503Z" fill="#935F49"/>
<path d="M19.627 108.144C-4.84564 93.8027 -4.73548 58.6165 19.627 44.2046C43.9186 29.6823 75.017 48.0441 74.9462 76.2136C75.1508 104.486 43.8242 122.422 19.627 108.144ZM48.585 94.2679C62.3479 86.4627 62.2692 65.8777 48.5063 58.0804C34.6647 49.9126 17.3686 60.2722 17.345 76.2136C17.2191 92.5176 34.7119 102.136 48.585 94.2679Z" fill="#F3A07E"/>
<path d="M99.0254 41.39V111.691H82.9726V41.39C82.9726 40.8776 83.5627 40.6016 83.9562 40.9328C88.0323 44.3465 93.9656 44.3465 98.0417 40.9328C98.4352 40.6095 99.0254 40.8855 99.0254 41.39Z" fill="#F3A07E"/>
<path d="M147.656 111.691V67.0682C147.79 60.4693 141.967 54.6351 135.38 54.7692C128.794 54.6351 122.971 60.4693 123.105 67.0682V111.691H107.052V67.0682C107.052 61.9199 108.311 57.1895 110.829 52.877C121.838 34.0343 148.797 33.9397 159.774 52.877C162.292 57.1895 163.551 61.9199 163.551 67.0682V111.691H147.656Z" fill="#F3A07E"/>
<path d="M187.788 3.68098V111.691H171.735V6.04618C171.735 3.43658 173.852 1.31579 176.456 1.31579H185.427C186.733 1.31579 187.788 2.37224 187.788 3.68098ZM210.293 111.691L176.771 54.2961C190.487 62.7162 207.468 54.2173 210.128 39.017C210.514 36.7385 212.473 35.0592 214.779 35.0592H224.072C225.425 35.0592 226.511 36.1945 226.433 37.5427C225.779 51.1977 217.179 64.1984 205.1 70.2217L228.864 111.691H210.293Z" fill="#F3A07E"/>
<path d="M244.681 108.144C220.208 93.8027 220.318 58.6165 244.681 44.2046C268.972 29.6823 300.071 48.0441 300 76.2136C300.205 104.486 268.878 122.422 244.681 108.144ZM273.639 94.2679C287.402 86.4627 287.323 65.8777 273.56 58.0804C259.719 49.9126 242.422 60.2722 242.399 76.2136C242.273 92.5176 259.766 102.136 273.639 94.2679Z" fill="#F3A07E"/>
<path d="M99.6234 29.0989C99.6234 33.8687 95.7597 37.7398 90.999 37.7398C79.5653 37.2825 79.5653 20.9154 90.999 20.466C95.7597 20.466 99.6234 24.337 99.6234 29.1068V29.0989Z" fill="#F3A07E"/>
<path d="M18.3112 106.828C-6.16143 92.4869 -6.05126 57.3008 18.3112 42.8888C42.6029 28.3666 73.7012 46.7283 73.6304 74.8978C73.835 103.17 42.5084 121.106 18.3112 106.828ZM47.2692 92.9521C61.0321 85.1469 60.9534 64.5619 47.1905 56.7646C33.3489 48.5968 16.0528 58.9564 16.0292 74.8978C15.9033 91.2018 33.3961 100.82 47.2692 92.9521Z" fill="#FBCFBC"/>
<path d="M97.7096 40.0743V110.376H81.6568V40.0743C81.6568 39.5618 82.247 39.2859 82.6404 39.617C86.7166 43.0307 92.6498 43.0307 96.7259 39.617C97.1194 39.2937 97.7096 39.5697 97.7096 40.0743Z" fill="#FBCFBC"/>
<path d="M146.34 110.376V65.7524C146.474 59.1535 140.651 53.3193 134.064 53.4534C127.478 53.3193 121.655 59.1535 121.789 65.7524V110.376H105.736V65.7524C105.736 60.6041 106.995 55.8737 109.513 51.5612C120.522 32.7185 147.481 32.6239 158.458 51.5612C160.976 55.8737 162.235 60.6041 162.235 65.7524V110.376H146.34Z" fill="#FBCFBC"/>
<path d="M186.472 2.36519V110.376H170.419V4.73039C170.419 2.12079 172.536 0 175.141 0H184.111C185.418 0 186.472 1.05645 186.472 2.36519ZM208.977 110.376L175.455 52.9803C189.171 61.4004 206.152 52.9015 208.812 37.7012C209.198 35.4227 211.157 33.7434 213.463 33.7434H222.756C224.11 33.7434 225.195 34.8787 225.117 36.2269C224.464 49.8819 215.863 62.8826 203.784 68.906L227.548 110.376H208.977Z" fill="#FBCFBC"/>
<path d="M243.365 106.828C218.892 92.4869 219.003 57.3008 243.365 42.8888C267.657 28.3666 298.755 46.7283 298.684 74.8978C298.889 103.17 267.562 121.106 243.365 106.828ZM272.323 92.9521C286.086 85.1469 286.007 64.5619 272.244 56.7646C258.403 48.5968 241.107 58.9564 241.083 74.8978C240.957 91.2018 258.45 100.82 272.323 92.9521Z" fill="#FBCFBC"/>
<path d="M98.3076 27.7831C98.3076 32.5529 94.4439 36.424 89.6832 36.424C78.2495 35.9667 78.2495 19.5996 89.6832 19.1502C94.4439 19.1502 98.3076 23.0212 98.3076 27.791V27.7831Z" fill="#FBCFBC"/>
</svg>
