<svg width="39" height="39" viewBox="0 0 39 39" fill="none" xmlns="http://www.w3.org/2000/svg">
<g clip-path="url(#clip0_119_236)">
<path d="M19.5 3.19629C10.5097 3.19629 3.19629 10.5097 3.19629 19.5C3.19629 28.4903 10.5097 35.8037 19.5 35.8037C28.4903 35.8037 35.8037 28.4903 35.8037 19.5C35.8037 10.5097 28.4888 3.19629 19.5 3.19629Z" fill="#FBB700"/>
<path d="M19.5 39C8.74819 39 0 30.2518 0 19.5C0 8.74819 8.74819 0 19.5 0C30.2518 0 39 8.74819 39 19.5C39 30.2518 30.2518 39 19.5 39ZM19.5 3.19628C10.5097 3.19628 3.19628 10.5097 3.19628 19.5C3.19628 28.4903 10.5097 35.8037 19.5 35.8037C28.4903 35.8037 35.8037 28.4903 35.8037 19.5C35.8037 10.5097 28.4888 3.19628 19.5 3.19628Z" fill="#FFDF57"/>
<path d="M1.18969 19.5C1.18969 8.94722 9.61558 0.325272 20.0941 0.0103968C19.8966 0.00445579 19.699 0 19.5 0C8.74819 0 0 8.74819 0 19.5C0 30.2518 8.74819 39 19.5 39C19.699 39 19.8966 38.9955 20.0941 38.9896C9.61558 38.6747 1.18821 30.0528 1.18821 19.5H1.18969Z" fill="#FFF2BE"/>
<path d="M19.4999 3.19629C19.3262 3.19629 19.1524 3.20074 18.9801 3.2052C27.7298 3.48146 34.7625 10.6835 34.7625 19.4985C34.7625 28.3135 27.7298 35.5171 18.9801 35.7933C19.1524 35.7993 19.3262 35.8022 19.4999 35.8022C28.4902 35.8022 35.8037 28.4888 35.8037 19.4985C35.8037 10.5082 28.4887 3.19629 19.4999 3.19629Z" fill="#E09A00"/>
<path d="M12.3321 14.5318C11.8004 15.1259 11.0043 16.075 10.5988 16.7434C8.58035 20.0674 8.82394 24.1994 11.7276 26.9025L11.7321 26.907C12.6455 27.6229 13.7312 28.0848 14.8793 28.2586C15.6056 28.3685 16.3334 28.4606 17.0642 28.5348C19.4807 28.7784 21.9952 28.8304 24.4355 28.5007C25.294 28.3848 26.1139 28.0551 26.8015 27.5278C26.8684 27.4773 26.9308 27.4254 26.9887 27.3719C29.8909 24.7445 30.1924 20.0956 28.3863 16.7448C28.0224 16.069 27.1075 14.9685 26.555 14.4145C26.3812 14.2422 25.7277 13.7981 25.6802 13.6139C25.6252 13.4015 26.5357 11.7648 26.7228 11.4811C26.9129 11.3207 26.8431 11.8658 26.8624 11.9727C27.1639 13.7179 27.5575 14.7843 28.6076 16.1775C28.6685 16.2577 28.7665 16.3928 28.7962 16.4894C28.8052 16.5176 28.8319 16.5369 28.8646 16.5369C29.0992 16.5369 29.3978 16.675 29.8003 16.5904C30.7078 16.3973 32.4114 15.4586 32.3193 14.3788C32.2153 13.1683 29.9161 11.2464 28.9002 10.6686C26.8491 9.49973 25.3193 11.0875 24.4474 12.8223C24.4311 12.8549 24.3939 12.8683 24.3598 12.8549C21.2021 11.5746 17.6182 11.6652 14.4947 12.9931C14.4605 13.0079 14.4234 12.9931 14.407 12.9604C13.7342 11.5717 12.5237 9.83243 10.734 10.3849C9.75074 10.6879 7.205 12.9663 6.80695 13.9199C6.24998 15.2566 7.57632 16.0378 8.64125 16.4686C9.38091 16.7671 9.46111 16.6721 10.1577 16.678C10.1815 16.678 10.2052 16.6661 10.2186 16.6453C10.4874 16.2428 10.8038 15.9294 11.0325 15.4809C11.3801 14.8006 11.7454 13.7268 11.8539 12.9708C11.9207 12.5059 11.8791 12.0143 11.9875 11.5598C12.0024 11.5004 12.0811 11.487 12.1138 11.539C12.3202 11.8628 12.4821 12.2608 12.6277 12.6128C12.7138 12.8237 13.0896 13.6956 13.0525 13.8293C13.0139 13.9719 12.4762 14.3669 12.3306 14.5303L12.3321 14.5318Z" fill="#FAD0BB"/>
<path d="M11.9311 23.3394C11.8583 23.2666 11.9905 23.1344 12.0633 23.2072C12.1361 23.28 12.0039 23.4122 11.9311 23.3394Z" fill="#FAD0BB"/>
<path d="M25.1455 20.4743C25.1975 20.4625 25.1782 20.3481 25.2212 20.3511C25.2613 20.354 25.3386 20.4298 25.3802 20.4045C25.3965 20.3941 25.4916 20.0778 25.6549 20.21C25.6772 20.2278 25.5584 20.3837 25.5881 20.409C25.6223 20.4372 25.7752 20.3496 25.8569 20.3793C26.0649 20.4535 25.9921 20.9719 26.4139 20.6823C26.506 20.6199 26.3693 20.4223 26.5847 20.4773C26.7377 20.7506 26.601 21.2511 26.9902 21.1798C27.0407 21.1709 27.0823 21.2184 27.0674 21.2675C26.9724 21.5883 27.308 21.5021 27.3838 21.6106C27.4447 21.6967 27.1833 21.8482 27.1773 22.0443C27.1758 22.1155 27.4224 22.2507 27.3897 22.4987C27.3823 22.5522 27.0704 22.6428 27.1848 22.7423C27.2323 22.7824 27.4907 22.6502 27.4506 22.8418C27.1536 23.0795 27.0852 23.0617 27.1922 23.3349C27.2115 23.3854 27.1699 23.4389 27.1164 23.43C26.9902 23.4077 26.9709 23.4954 26.8431 23.5711C26.7763 23.6112 26.659 23.6038 26.6515 23.6097C26.5119 23.7345 26.8847 23.7597 26.8506 23.9083C26.7956 24.1518 26.4674 23.9929 26.451 24.0093C26.4198 24.0404 26.552 24.2023 26.4896 24.2781C26.4213 24.3613 26.2787 24.3137 26.203 24.3613C26.1629 24.3865 26.1584 24.5038 26.0767 24.5321C25.9104 24.59 25.5911 24.4637 25.4826 24.6093C25.4396 24.6672 25.4737 24.9227 25.3193 24.8068C25.3118 24.8009 25.3074 24.6954 25.248 24.6464C25.1574 24.5722 24.9895 24.5157 24.9361 24.4548C24.8767 24.388 24.8826 24.2514 24.838 24.2202C24.8172 24.2053 24.3806 24.082 24.3553 24.082C24.238 24.0776 23.9142 24.2588 24.0731 23.9573C24.088 23.9291 24.2558 23.8518 24.2692 23.7122C24.2736 23.6617 24.2217 23.6231 24.1741 23.6409C23.987 23.7122 24.088 23.583 23.9662 23.3929C23.8355 23.1894 23.5622 23.0572 23.6008 22.723C23.6142 22.6101 23.7211 22.4913 23.7152 22.3725C23.7107 22.2715 23.4538 21.9373 23.5206 21.8749C23.534 21.8616 23.6528 21.8972 23.7033 21.8631C23.7716 21.8155 23.7731 21.6195 23.788 21.6076C23.8266 21.5779 23.9617 21.6967 23.987 21.6744C24.1103 21.566 23.8622 21.5333 23.8533 21.4992C23.7865 21.2318 23.9751 21.2868 24.0464 21.1694C24.1132 21.0595 24.1578 20.7164 24.3405 20.7506C24.3954 20.761 24.5172 20.9259 24.5855 20.8739C24.6019 20.862 24.6851 20.513 24.7311 20.4847C24.8143 20.4342 25.0207 20.4996 25.144 20.4728L25.1455 20.4743Z" fill="#FAD0BB"/>
<path d="M23.0899 15.876C23.335 15.3947 24.749 16.023 24.896 16.5384C24.9524 16.7389 24.7311 16.8042 24.6019 16.73C24.5826 16.7196 24.5351 16.5711 24.4623 16.5072C24.2573 16.3305 23.8875 16.1166 23.6157 16.1002C23.4791 16.0928 22.8894 16.2696 23.0914 15.876H23.0899Z" fill="#FAD0BB"/>
<path d="M23.7567 18.9727C24.5989 18.9757 24.7311 21.1828 23.4924 20.9392C22.8284 20.81 22.818 18.9698 23.7567 18.9727Z" fill="#FAD0BB"/>
<path d="M17.2484 21.4279C18.3281 19.5876 21.6804 19.4332 22.8463 21.2511C23.1434 21.7145 23.3558 22.469 23.0973 22.9814C22.2997 24.5543 20.2471 24.5826 18.7247 24.241C17.2795 23.9172 16.4092 22.8582 17.2484 21.4279Z" fill="#FAD0BB"/>
<path d="M16.228 21.012C15.215 21.0848 15.2076 19.1495 16.1136 19.0217C17.0478 18.891 17.1681 20.9437 16.228 21.012Z" fill="#FAD0BB"/>
<path d="M15.9785 15.8269C16.1864 15.7943 16.5978 15.7898 16.6973 16.0096C16.8117 16.2621 16.0082 16.2027 15.8596 16.2413C15.7334 16.274 15.5165 16.4329 15.4007 16.5161C15.3175 16.577 14.8823 17.1132 14.7947 16.7745C14.7011 16.4136 15.6636 15.8759 15.977 15.8269H15.9785Z" fill="#FAD0BB"/>
<path d="M14.3298 20.409C14.4026 20.4818 14.2704 20.6139 14.1976 20.5412C14.1248 20.4684 14.257 20.3362 14.3298 20.409Z" fill="#FAD0BB"/>
<path d="M13.4461 20.6139C13.4639 20.562 13.5292 20.5471 13.5649 20.5887L13.6198 20.6511C13.6481 20.6823 13.7 20.6882 13.7268 20.6555C13.8604 20.4966 14.4085 20.8427 14.4635 20.7417C14.4783 20.7149 14.4456 20.5887 14.4843 20.4936C14.508 20.4372 14.7367 20.2783 14.7962 20.3407C14.8184 20.3629 14.7442 20.5991 14.86 20.7105C14.912 20.761 15.3056 20.8917 15.3754 20.957C15.4482 21.0254 15.4289 21.1694 15.4749 21.1977C15.5477 21.2452 15.6071 21.2229 15.8061 21.3655C15.9769 21.4888 16.1433 21.4784 16.0066 21.6997C15.9844 21.7368 15.9992 21.7873 16.0408 21.8007C16.1893 21.8497 16.2562 22.1155 16.0661 22.074C16.0393 22.1928 16.1611 22.1155 16.1982 22.1408C16.2814 22.1943 16.0661 22.2032 16.0616 22.2418C16.0453 22.377 16.225 22.5106 16.1968 22.6606C16.1893 22.7037 16.219 22.7423 16.2636 22.7453C16.3928 22.7527 16.3468 22.9354 16.2517 23.0958C16.1997 23.182 16.0765 23.1968 16.0616 23.2533C16.026 23.3958 16.1463 23.5949 16.1314 23.6053C16.1166 23.6171 16.0289 23.586 15.9888 23.6127C15.8314 23.7152 15.6829 23.7315 15.6695 23.7434C15.6472 23.7642 15.6814 23.9187 15.6309 24.0033C15.5462 24.1429 15.3101 24.189 15.3576 24.4667C15.3665 24.5217 15.3115 24.5662 15.2596 24.5425C15.1363 24.486 15.0219 24.443 14.964 24.5469C14.9387 24.593 14.8793 24.59 14.8481 24.5469C14.8437 24.541 14.8392 24.5365 14.8318 24.535C14.6952 24.4964 14.6892 24.5662 14.664 24.6212C14.6328 24.688 14.5318 24.6657 14.5318 24.5915V24.4043C14.309 24.339 14.4516 24.593 14.3654 24.6048C14.1783 24.6331 14.058 24.5038 13.8961 24.4741C13.599 24.4192 13.4 24.6256 13.4668 24.2038C13.2589 24.1801 13.3822 24.3702 13.2827 24.4103C13.2144 24.4385 13.1594 24.3464 13.2129 24.2944C13.2559 24.2528 13.2842 24.2202 13.2025 24.1697C13.0049 24.0464 12.7079 24.0434 12.5059 24.0078C12.4554 23.9989 12.4925 23.8652 12.4316 23.8087C12.3885 23.7701 12.4138 23.6974 12.4717 23.6899C12.5237 23.684 12.5712 23.6766 12.5891 23.6572C12.6069 23.6365 12.6232 23.531 12.6381 23.4255C12.6455 23.3647 12.5787 23.326 12.5282 23.3602C12.3009 23.5161 12.1851 23.0617 12.0945 22.9993C12.0365 22.9592 11.9148 22.9399 11.8004 22.9191C11.7202 22.9042 11.7261 22.7869 11.8078 22.7809C11.8821 22.775 11.9563 22.7676 11.9875 22.723C12.041 22.6458 12.1821 22.1007 12.1257 22.0145C12.0915 21.9611 11.8123 21.9507 11.8019 21.9388C11.7321 21.8601 11.9682 21.5304 12.1346 21.6061C12.1613 21.4858 12.0232 21.5645 12.0024 21.5393C11.8895 21.4056 12.139 21.4071 12.139 21.3685C12.139 21.3061 12.0232 21.1189 12.0692 21.0729C12.1138 21.0283 12.4598 21.1977 12.5311 21.1323C12.5995 21.0699 12.6099 20.6748 12.9069 20.6793C12.9529 20.6793 12.95 20.8353 13.0436 20.8694C13.2144 20.9303 13.3926 20.7818 13.4505 20.6139H13.4461Z" fill="#FAD0BB"/>
<path d="M28.3879 16.7433C28.024 16.0676 27.109 14.967 26.5565 14.413C26.3828 14.2407 25.7292 13.7966 25.6817 13.6124C25.6268 13.4 26.5372 11.7633 26.7244 11.4796C26.9145 11.3192 26.8447 11.8643 26.864 11.9712C27.1699 13.7431 27.571 14.8155 28.6582 16.2398C28.7339 16.3394 28.8186 16.3854 28.7889 16.5413C28.6998 16.5562 28.5423 16.7641 28.3893 16.7419L28.3879 16.7433Z" fill="#F4A07F"/>
<path d="M10.1993 16.678C10.4726 16.2591 10.7994 15.9413 11.0355 15.4824C11.3831 14.8021 11.7485 13.7283 11.8569 12.9723C11.9312 12.4569 11.8732 11.9088 12.0307 11.4157C12.2802 11.7573 12.4659 12.2163 12.6292 12.6158C12.7154 12.8267 13.0911 13.6986 13.054 13.8322C13.0154 13.9748 12.4777 14.3699 12.3322 14.5333C11.8005 15.1274 11.0044 16.0765 10.5989 16.7448C10.4652 16.776 10.3107 16.6795 10.1993 16.678Z" fill="#F4A07F"/>
<path d="M23.0973 22.9814C22.2997 24.5543 20.2471 24.5826 18.7247 24.241C17.2795 23.9172 16.4092 22.8582 17.2484 21.4279C18.3281 19.5876 21.6804 19.4332 22.8463 21.2511C23.1434 21.7145 23.3558 22.469 23.0973 22.9814ZM18.7722 21.7502C18.5331 21.8289 18.5301 22.5671 18.6905 22.7438C19.2416 23.3498 19.5772 21.4858 18.7722 21.7502ZM21.4368 21.7502C21.1828 21.8348 21.0892 22.5492 21.3937 22.772C22.0487 23.2503 22.1304 21.52 21.4368 21.7502Z" fill="#F7B395"/>
<path d="M14.7961 20.3407C14.8184 20.3629 14.7442 20.5991 14.86 20.7105C14.912 20.761 15.3056 20.8917 15.3754 20.957C15.4452 21.0224 15.4289 21.1694 15.4749 21.1976C15.5477 21.2452 15.6071 21.2229 15.8061 21.3655C15.9398 21.4605 16.069 21.4754 16.0556 21.5823C16.0423 21.6893 16.0749 21.7903 16.1373 21.8764C16.2057 21.97 16.2042 22.1051 16.0646 22.074C16.0378 22.1928 16.1596 22.1155 16.1967 22.1408C16.2799 22.1943 16.0646 22.2032 16.0601 22.2418C16.0467 22.3532 16.167 22.4646 16.1938 22.5849C16.2101 22.6577 16.2561 22.7156 16.3126 22.7631C16.3735 22.8136 16.3289 22.9621 16.2502 23.0958C16.1982 23.182 16.0749 23.1968 16.0601 23.2533C16.0244 23.3958 16.1448 23.5949 16.1299 23.6053C16.115 23.6171 16.0274 23.5859 15.9873 23.6127C15.8299 23.7152 15.6814 23.7315 15.668 23.7434C15.6457 23.7642 15.6799 23.9186 15.6294 24.0033C15.5328 24.1637 15.2373 24.2008 15.3962 24.6048C15.1897 24.5217 14.9669 24.3494 14.9298 24.6717C14.8199 24.7014 14.8912 24.5543 14.8318 24.5365C14.5986 24.4712 14.7456 24.7177 14.5318 24.6717V24.4058C14.309 24.3405 14.4501 24.5944 14.3639 24.6063C14.1768 24.6345 14.0565 24.5053 13.8946 24.4756C13.5975 24.4207 13.3985 24.6271 13.4653 24.2053C13.1995 24.1756 13.4757 24.4934 13.1326 24.4043C13.1653 24.29 13.3376 24.2558 13.1995 24.1711C13.0019 24.0479 12.7049 24.0449 12.5029 24.0092C12.4301 23.9959 12.5415 23.7152 12.2653 23.8043C12.2667 23.6647 12.5371 23.7152 12.5861 23.6587C12.5935 23.6498 12.6009 23.6261 12.6083 23.5949C12.6321 23.4864 12.543 23.3958 12.4316 23.3943C12.2638 23.3914 12.1702 23.0542 12.0915 23.0008C11.9949 22.9354 11.7276 22.925 11.5999 22.8715C11.6192 22.7334 11.9132 22.8285 11.9845 22.7245C12.038 22.6473 12.1791 22.1022 12.1227 22.016C12.0885 21.9626 11.8093 21.9522 11.7989 21.9403C11.7291 21.8616 11.9652 21.5318 12.1316 21.6076C12.1583 21.4873 12.0202 21.566 11.9994 21.5407C11.8865 21.4071 12.136 21.4086 12.136 21.3699C12.136 21.3076 12.0202 21.1204 12.0662 21.0744C12.1123 21.0283 12.4568 21.1991 12.5281 21.1338C12.5994 21.0684 12.6069 20.6763 12.9039 20.6808C12.95 20.6808 12.947 20.8367 13.0406 20.8709C13.2589 20.9481 13.4861 20.6867 13.4668 20.4758L13.4817 20.4936C13.5649 20.5887 13.6911 20.6288 13.8173 20.6154C14.0208 20.5946 14.4174 20.8278 14.4649 20.7432C14.4798 20.7164 14.4471 20.5902 14.4857 20.4951C14.5095 20.4387 14.7382 20.2798 14.7976 20.3421L14.7961 20.3407Z" fill="#F8C2AA"/>
<path d="M25.6564 20.2085C25.6787 20.2263 25.5598 20.3822 25.5895 20.4075C25.6237 20.4357 25.7767 20.3481 25.8584 20.3778C26.0663 20.452 25.9935 20.9704 26.4153 20.6808C26.5074 20.6184 26.3708 20.4209 26.5861 20.4758C26.754 20.7758 26.5743 21.3477 27.1194 21.1412C26.8951 21.6091 27.3006 21.4888 27.3867 21.6091C27.4476 21.6952 27.1862 21.8467 27.1803 22.0428C27.1788 22.1141 27.4253 22.2492 27.3926 22.4973C27.3852 22.5507 27.0733 22.6413 27.1877 22.7408C27.2352 22.7809 27.4936 22.6488 27.4535 22.8404C27.1134 23.1136 27.0718 23.0498 27.2545 23.4746C26.9961 23.3572 27.0094 23.4746 26.8476 23.5696C26.7807 23.6097 26.6634 23.6023 26.656 23.6082C26.5163 23.733 26.8891 23.7582 26.855 23.9068C26.8 24.1504 26.4718 23.9914 26.4554 24.0078C26.4243 24.039 26.5564 24.2009 26.4941 24.2766C26.4257 24.3598 26.2832 24.3122 26.2074 24.3598C26.1673 24.385 26.1629 24.5024 26.0812 24.5306C25.9148 24.5885 25.5955 24.4623 25.4871 24.6078C25.444 24.6657 25.4781 24.9212 25.3237 24.8054C25.3163 24.7994 25.3118 24.694 25.2524 24.6449C25.1618 24.5707 24.9939 24.5142 24.9405 24.4533C24.8811 24.3865 24.887 24.2499 24.8425 24.2187C24.8217 24.2038 24.385 24.0805 24.3597 24.0805C24.2424 24.0761 23.9186 24.2573 24.0775 23.9558C24.079 23.9513 24.085 23.9469 24.0909 23.9409C24.186 23.8637 24.1815 23.7137 24.0746 23.6528C24.0315 23.6275 24.0553 23.5251 23.9691 23.3914C23.8384 23.1879 23.5651 23.0557 23.6037 22.7215C23.6171 22.6086 23.7241 22.4898 23.7181 22.371C23.7137 22.27 23.4567 21.9358 23.5235 21.8734C23.5369 21.8601 23.6557 21.8957 23.7062 21.8616C23.7745 21.814 23.776 21.618 23.7909 21.6061C23.8295 21.5764 23.9647 21.6952 23.9899 21.6729C24.1132 21.5645 23.8651 21.5318 23.8562 21.4977C23.7894 21.2303 23.978 21.2853 24.0493 21.1679C24.1162 21.058 24.1607 20.7149 24.3434 20.7491C24.3984 20.7595 24.5202 20.9244 24.5885 20.8724C24.6048 20.8605 24.688 20.5115 24.734 20.4832C24.8172 20.4327 25.0237 20.4981 25.1469 20.4714C25.1989 20.4595 25.1796 20.3451 25.2227 20.3481C25.2658 20.3511 25.34 20.4268 25.3816 20.4016C25.3979 20.3912 25.493 20.0748 25.6564 20.207V20.2085ZM23.9231 21.8749C23.8503 21.8022 23.7181 21.9343 23.7909 22.0071C23.8637 22.0799 23.9959 21.9477 23.9231 21.8749ZM24.0241 22.0071V22.074C24.0671 22.0517 24.0671 22.0294 24.0241 22.0071ZM26.0886 24.2053V24.2721C26.1317 24.2499 26.1317 24.2276 26.0886 24.2053ZM25.9222 24.339C25.8495 24.2662 25.7173 24.3984 25.79 24.4712C25.8628 24.5439 25.995 24.4118 25.9222 24.339Z" fill="#F8C2AA"/>
<path d="M16.1136 19.0217C17.0478 18.891 17.1681 20.9437 16.228 21.012C15.215 21.0848 15.2076 19.1495 16.1136 19.0217Z" fill="#865C47"/>
<path d="M23.7567 18.9727C24.5989 18.9757 24.7311 21.1828 23.4924 20.9392C22.8284 20.81 22.818 18.9698 23.7567 18.9727Z" fill="#865C47"/>
<path d="M15.9785 15.8269C16.1864 15.7943 16.5978 15.7898 16.6973 16.0096C16.8117 16.2621 16.0082 16.2027 15.8596 16.2413C15.7334 16.274 15.5165 16.4329 15.4007 16.5161C15.3175 16.577 14.8823 17.1132 14.7947 16.7745C14.7011 16.4136 15.6636 15.8759 15.977 15.8269H15.9785Z" fill="#936049"/>
<path d="M24.6019 16.7315C24.5826 16.7211 24.5351 16.5725 24.4623 16.5087C24.2573 16.3319 23.8875 16.1181 23.6157 16.1017C23.4791 16.0943 22.8894 16.271 23.0914 15.8774C23.3365 15.3962 24.7505 16.0245 24.8975 16.5399C24.9539 16.7404 24.7326 16.8057 24.6034 16.7315H24.6019Z" fill="#936049"/>
<path d="M12.0648 23.2072C12.1375 23.28 12.0053 23.4122 11.9326 23.3394C11.8598 23.2666 11.992 23.1344 12.0648 23.2072Z" fill="#F8C2AA"/>
<path d="M14.3298 20.409C14.4026 20.4818 14.2704 20.6139 14.1976 20.5412C14.1248 20.4684 14.257 20.3362 14.3298 20.409Z" fill="#F8C2AA"/>
<path d="M21.4368 21.7502C22.1304 21.52 22.0502 23.2503 21.3937 22.772C21.0892 22.5492 21.1828 21.8348 21.4368 21.7502Z" fill="#936049"/>
<path d="M18.7722 21.7502C19.5772 21.4843 19.2415 23.3483 18.6905 22.7438C18.5301 22.5685 18.5331 21.8289 18.7722 21.7502Z" fill="#936049"/>
<path d="M25.9223 24.339C25.9951 24.4118 25.8629 24.5439 25.7901 24.4712C25.7173 24.3984 25.8495 24.2662 25.9223 24.339Z" fill="#FAD0BB"/>
<path d="M23.9232 21.8749C23.9959 21.9477 23.8637 22.0799 23.791 22.0071C23.7182 21.9343 23.8504 21.8021 23.9232 21.8749Z" fill="#FAD0BB"/>
<path d="M24.024 22.0071C24.0671 22.0294 24.0671 22.0517 24.024 22.0739V22.0071Z" fill="#FAD0BB"/>
<path d="M26.0886 24.2053C26.1317 24.2276 26.1317 24.2499 26.0886 24.2721V24.2053Z" fill="#FAD0BB"/>
<path d="M21.7561 25.2539C21.9729 25.4292 21.462 25.8317 21.3194 25.9193C20.6748 26.3203 19.5787 26.3263 18.9415 25.9015C18.7751 25.7901 18.1127 25.0905 18.4811 24.9984C18.7439 24.9331 18.8999 25.3133 19.0856 25.4574C19.549 25.8168 20.348 25.8361 20.8916 25.6505C21.1174 25.5732 21.6046 25.1291 21.7561 25.2524V25.2539Z" fill="#936049"/>
</g>
<defs>
<clipPath id="clip0_119_236">
<rect width="39" height="39" fill="white"/>
</clipPath>
</defs>
</svg>
