<svg width="294" height="478" viewBox="0 0 294 478" fill="none" xmlns="http://www.w3.org/2000/svg">
<path d="M79.3225 420.571C76.8864 418.532 70.3799 409.475 69.6544 406.382C69.0206 403.664 68.4479 400.93 67.814 398.211C67.6995 397.707 67.6307 397.31 67.5849 396.982C67.5009 396.317 68.2188 395.867 68.7915 396.203C74.0761 399.341 77.9556 403.931 84.882 402.304C91.3809 400.777 86.5316 392.193 87.7153 391.017C88.5095 390.231 94.932 393.621 96.4288 388.696C99.178 379.677 91.0067 368.97 85.4166 362.762C82.6674 359.707 80.2008 356.927 76.9246 354.46C76.5428 354.17 76.474 353.62 76.8101 353.277C79.7502 350.23 76.3748 354.186 75.8249 351.642C74.962 347.633 77.1919 347.389 75.5576 348.702C66.279 356.141 77.7799 358.432 82.087 364.633C82.2627 364.885 82.2627 365.221 82.1023 365.488C80.1167 368.772 78.7574 372.842 76.4358 376.301C74.9085 378.577 66.6227 387.535 65.0648 389.796C64.8739 390.063 64.5455 390.2 64.2247 390.124C46.4236 385.947 32.3797 368.1 34.2736 349.405C36.0071 332.291 54.5643 317.102 69.6621 311.03C69.9446 310.916 70.2501 310.992 70.4869 311.176C71.388 311.878 72.9153 311.45 73.9768 311.977C75.2445 312.604 75.3362 314.704 77.7876 315.796C80.2389 316.888 84.0115 316.789 87.5091 316.995C88.372 317.048 88.6928 315.88 87.9138 315.49L76.7871 309.893C76.0082 309.518 75.1452 309.243 74.2747 309.274C74.0761 309.274 73.8852 309.228 73.7325 309.114L57.955 296.735C57.955 296.735 57.9168 296.704 57.8939 296.689C24.6131 265.714 21.8105 218.336 44.9497 180.244C49.6005 172.585 58.7187 161.71 64.8204 154.898C66.5005 153.027 72.648 148.491 73.0986 146.856C73.5186 145.314 69.2268 135.325 68.234 132.912C66.5769 128.88 64.7211 124.305 62.3538 120.601C61.9796 120.013 61.0632 120.166 60.9028 120.853C59.6733 126.054 60.1391 131.682 59.3754 137.013C58.1307 145.665 53.9457 157.983 49.9594 165.78C47.3323 170.92 43.6896 174.509 40.612 179.129C40.4669 179.351 40.2073 179.488 39.94 179.488C31.9444 179.427 31.028 180.519 22.536 177.09C10.3172 172.149 -4.87984 163.199 1.51209 147.872C6.06357 136.929 35.2434 110.826 46.5152 107.352C67.0198 101.029 80.9033 120.945 88.6164 136.868C88.7997 137.249 89.2426 137.41 89.6321 137.242C125.425 122.014 166.503 120.983 202.694 135.653C203.075 135.806 203.511 135.653 203.694 135.279C213.683 115.401 231.224 97.2026 254.73 110.605C266.368 117.241 292.73 139.273 293.914 153.141C294.976 165.528 275.449 176.281 265.04 178.495C260.419 179.473 256.991 177.877 254.31 177.892C253.882 177.892 253.516 177.571 253.493 177.144C253.432 175.975 252.638 175.441 251.927 174.501C239.472 158.159 234.875 145.879 231.369 125.565C231.156 124.328 231.957 118.089 229.773 119.922C227.635 123.167 217.196 141.938 217.83 144.367C218.372 146.475 225.879 151.561 227.864 153.546C234.203 159.877 244.68 172.493 248.857 180.252C269.545 218.657 266.094 271.953 232.828 302.065C228.582 305.906 221.801 309.45 218.311 313.131C218.005 313.451 217.15 313.451 216.89 314.406C216.363 316.33 222.106 332.207 222.893 336.041C225.291 347.732 226.551 368.963 225.184 380.334C224.58 385.336 222.419 393.919 220.602 398.662C219.097 402.602 215.638 408.773 212.95 412.011C209.437 416.241 205.03 418.364 201.159 421.946C201.021 422.076 200.929 422.252 200.907 422.442C199.326 434.6 198.264 446.849 197.004 459.045C196.966 459.45 196.622 459.763 196.21 459.763H158.676C158.278 459.763 157.942 459.473 157.889 459.083C157.148 453.845 156.27 448.339 155.758 442.894C155.72 442.496 155.987 442.138 156.377 442.046C164.64 440.099 172.704 435.119 179.806 430.27C180.494 429.797 180.081 428.712 179.249 428.819C171.146 429.858 163.067 431.805 154.926 432.279C151.955 432.454 137.835 431.69 135.071 432.729C134.811 432.828 134.635 433.073 134.597 433.348C133.375 442.023 131.649 450.576 129.862 459.137C129.786 459.503 129.458 459.771 129.083 459.771H90.0216C89.5939 459.771 89.2426 459.435 89.2197 459.007C88.731 448.537 89.7772 437.914 89.1357 427.437M205.45 180.099C206.94 180.954 209.483 180.198 208.826 177.9C207.146 171.981 190.933 164.787 188.115 170.301C185.816 174.807 192.56 172.783 194.133 172.875C197.249 173.058 201.487 175.509 203.839 177.541C204.687 178.266 205.229 179.969 205.443 180.099H205.45ZM106.616 169.744C103.035 170.301 92.0071 176.472 93.0686 180.603C94.069 184.483 99.0481 178.327 100.003 177.64C101.316 176.693 103.821 174.868 105.257 174.494C106.952 174.051 116.162 174.746 114.849 171.844C113.711 169.316 108.984 169.377 106.608 169.744H106.616ZM195.775 205.789C184.999 205.758 185.129 226.843 192.735 228.333C206.94 231.112 205.435 205.812 195.775 205.789ZM108.159 206.354C97.7805 207.805 97.8645 229.997 109.472 229.165C120.24 228.386 118.858 204.857 108.159 206.354ZM188.214 251.747C191.185 245.882 188.749 237.229 185.343 231.922C171.963 211.074 133.558 212.845 121.172 233.938C111.542 250.334 121.523 262.476 138.095 266.188C155.537 270.09 179.073 269.769 188.214 251.747ZM217.539 219.963C215.661 218.458 214.569 222.086 214.385 222.2C213.912 222.498 213.034 221.62 212.568 221.597C212.079 221.566 212.285 222.88 211.697 223.01C210.3 223.315 207.925 222.559 206.97 223.14C206.443 223.46 205.504 227.454 205.313 227.592C204.526 228.172 203.121 226.294 202.495 226.171C200.403 225.767 199.883 229.707 199.12 230.967C198.302 232.311 196.134 231.693 196.905 234.747C197.004 235.137 199.853 235.503 198.44 236.748C198.15 237 196.615 235.641 196.164 235.977C195.996 236.107 195.966 238.36 195.187 238.902C194.614 239.299 193.255 238.902 193.102 239.047C192.338 239.765 195.286 243.606 195.332 244.751C195.385 246.103 194.163 247.462 194.011 248.768C193.575 252.594 196.699 254.122 198.203 256.443C199.601 258.612 198.455 260.094 200.601 259.276C201.151 259.07 201.747 259.498 201.693 260.078C201.533 261.69 199.608 262.583 199.44 262.904C197.615 266.363 201.327 264.279 202.678 264.332C202.968 264.347 207.986 265.752 208.223 265.92C208.727 266.279 208.665 267.837 209.345 268.616C209.956 269.311 211.881 269.945 212.919 270.808C213.599 271.365 213.652 272.58 213.729 272.641C215.508 273.962 215.111 271.037 215.6 270.365C216.829 268.693 220.495 270.144 222.404 269.471C223.336 269.143 223.381 267.799 223.847 267.509C224.718 266.974 226.352 267.509 227.139 266.562C227.864 265.691 226.337 263.843 226.703 263.484C226.894 263.301 230.652 265.119 231.278 262.324C231.66 260.621 227.383 260.338 228.987 258.91C229.071 258.834 230.415 258.918 231.186 258.467C232.652 257.596 232.866 256.588 234.325 256.848C234.928 256.955 235.409 256.336 235.188 255.764C233.951 252.633 234.745 252.839 238.151 250.112C238.617 247.913 235.654 249.44 235.104 248.975C233.783 247.844 237.364 246.798 237.448 246.187C237.83 243.339 234.997 241.796 235.02 240.979C235.081 238.726 238.082 236.993 237.387 236.007C236.509 234.763 232.66 235.763 233.76 232.075C233.928 231.517 233.439 230.967 232.866 231.074C228.399 231.891 229.964 226.148 228.208 223.017C225.741 222.391 227.307 224.652 226.245 225.377C221.396 228.691 222.236 222.742 219.853 221.895C218.914 221.559 217.158 222.559 216.768 222.238C216.424 221.956 217.784 220.169 217.532 219.963H217.539ZM93.061 221.475C92.366 220.765 89.7466 222.574 89.4793 223.231C89.0441 224.316 89.4106 225.767 89.2426 226.072C88.6088 227.233 82.3314 223.262 80.7964 225.087C80.4833 225.461 79.8876 225.408 79.5669 225.041L78.9331 224.316C78.5207 223.85 77.7799 224.018 77.5737 224.606C76.9017 226.538 74.8627 228.233 72.9001 227.538C71.8233 227.156 71.8767 225.377 71.3422 225.369C67.9362 225.316 67.8216 229.852 67.0427 230.57C66.2638 231.288 62.2621 229.386 61.7505 229.89C61.2388 230.394 62.5676 232.563 62.5523 233.273C62.5523 233.716 59.6962 233.709 60.9868 235.228C61.2235 235.503 62.8043 234.602 62.5065 235.985C60.5897 235.122 57.8863 238.902 58.6881 239.803C58.818 239.948 62.0101 240.07 62.3996 240.673C63.0411 241.666 61.4374 247.905 60.8188 248.799C60.4599 249.318 59.6122 249.402 58.7569 249.471C57.8252 249.54 57.7488 250.884 58.6729 251.052C59.9864 251.288 61.3686 251.51 62.0406 251.968C63.0945 252.686 64.408 257.902 67.0198 256.107C67.5925 255.71 68.3638 256.168 68.2722 256.856C68.1118 258.07 67.9209 259.269 67.7147 259.513C67.5085 259.758 66.9816 259.819 66.3783 259.895C65.7215 259.979 65.4237 260.804 65.9201 261.247C66.615 261.881 66.195 263.423 66.7678 263.522C69.0817 263.927 72.48 263.965 74.7481 265.371C75.6875 265.951 75.3667 266.325 74.8703 266.806C74.267 267.394 74.8932 268.463 75.6722 268.135C76.8177 267.662 75.3973 265.493 77.7876 265.76C77.0392 270.586 79.3149 268.227 82.7132 268.861C84.5689 269.204 85.9512 270.686 88.0971 270.357C89.0822 270.205 87.4556 267.31 90.0063 268.051V270.205C90.0063 271.052 91.1747 271.32 91.5336 270.548C91.8238 269.922 91.8849 269.128 93.4581 269.563C93.5421 269.586 93.6032 269.632 93.649 269.701C94.0003 270.189 94.68 270.22 94.9778 269.693C95.6422 268.502 96.9404 268.983 98.3608 269.639C98.9412 269.907 99.5827 269.41 99.4758 268.777C98.9336 265.584 101.645 265.057 102.607 263.454C103.187 262.484 102.798 260.72 103.057 260.475C103.21 260.33 104.913 260.139 106.715 258.971C107.181 258.673 108.166 259.024 108.342 258.887C108.51 258.765 107.128 256.489 107.54 254.855C107.701 254.213 109.121 254.045 109.709 253.053C110.809 251.204 111.328 249.12 109.846 249.028C109.342 248.997 108.999 248.555 109.083 248.066C109.396 246.355 107.342 244.805 107.525 243.262C107.578 242.835 110.045 242.728 109.098 242.109C108.67 241.834 107.265 242.705 107.578 241.345C109.77 241.827 108.999 238.78 107.296 238.214C106.822 238.054 106.647 237.474 106.906 237.054C108.472 234.518 106.578 234.633 104.615 233.228C102.34 231.593 101.668 231.853 100.827 231.311C100.308 230.975 100.522 229.341 99.6973 228.546C98.8725 227.752 94.3974 226.301 93.7941 225.721C92.4653 224.438 93.313 221.742 93.061 221.482V221.475ZM87.7153 222.254C86.8829 221.421 85.3632 222.941 86.1956 223.773C87.028 224.606 88.5477 223.086 87.7153 222.254ZM61.7505 254.328C60.9181 253.495 59.3983 255.015 60.2308 255.848C61.0632 256.68 62.5829 255.16 61.7505 254.328Z" fill="#FBCFBB"/>
<path d="M234.348 321.523C238.044 323.875 240.931 325.227 244.275 328.396L243.504 332.215C242.137 331.359 242.32 330.382 240.243 329.763C238.838 329.343 238.594 328.656 237.41 330.321C236.875 332.482 241.289 330.229 241.244 331.863C241.152 334.788 234.027 338.347 239.686 340.63C240.052 341.944 238.533 341.096 238.227 341.425C237.777 341.921 241.48 345.037 235.119 342.914C233.447 347.71 239.472 345.64 240.465 346.747C240.625 346.923 239.411 349.176 240.793 349.787L238.93 350.55C238.884 352.276 241.61 350.413 241.213 352.062C238.792 351.177 239.701 357.087 240.908 357.309C241.473 357.416 242.496 356.393 242.74 356.652C244.092 358.103 241.19 358.195 241.152 358.63C240.969 360.509 243.428 362.762 238.945 363.136C239.587 363.968 240.526 365.114 240.495 366.183C240.472 366.985 238.586 366.022 238.93 367.336C242.175 366.87 239.09 370.742 238.174 372.315C239.006 372.643 241.45 371.391 241.969 371.926C242.198 372.155 241.931 377.584 241.801 378.424C241.725 378.921 240.717 378.768 240.625 379.165C239.464 384.343 241.32 381.975 245.024 381.853C242.588 384.625 240.938 385.336 238.914 387.199C234.913 385.488 231.835 381.319 228.025 379.379C226.841 378.776 224.741 377.791 225.168 380.326C226.535 368.955 225.275 347.725 222.877 336.033C223.687 334.498 227.284 334.666 227.467 334.498C227.826 334.162 226.383 332.092 226.757 331.558C227.032 331.168 229.01 331.13 228.987 329.931L226.696 329.542C228.414 329.168 228.735 327.152 228.994 326.869C229.75 326.059 229.789 329.962 231.27 328.381C231.583 328.053 230.583 326.938 230.568 326.434C230.56 326.182 232.805 326.067 231.278 322.279L234.325 321.516L234.348 321.523ZM236.257 338.324V339.088C236.753 338.836 236.753 338.576 236.257 338.324ZM238.922 347.496C237.853 346.946 236.883 347.977 237.402 348.244C238.472 348.794 239.441 347.763 238.922 347.496Z" fill="#F9C3AA"/>
<path d="M129.725 459.748C129.671 459.992 129.778 460.267 129.725 460.511C128.931 464.2 127.816 474.945 123.829 476.38C120.301 477.648 102.714 477.87 98.7656 477.343C96.6502 477.06 94.6188 475.334 93.1831 474.586C92.2744 474.112 91.4573 473.456 90.9609 472.562C89.2961 469.569 90.2812 465.788 90.0215 462.375C89.9375 461.275 89.2808 460.191 89.2502 459.74H129.725V459.748Z" fill="#CD8365"/>
<path d="M196.997 459.748C196.951 459.992 197.05 460.267 196.997 460.511C196.233 464.2 195.156 474.945 191.315 476.38C187.909 477.648 170.955 477.87 167.152 477.343C165.121 477.06 163.166 475.35 161.784 474.594C160.905 474.112 160.111 473.463 159.638 472.577C158.026 469.584 158.981 465.796 158.721 462.375C158.637 461.275 158.004 460.191 157.981 459.74H196.997V459.748Z" fill="#CD8365"/>
<path d="M248.857 180.244C244.68 172.493 234.21 159.877 227.864 153.539C225.879 151.561 218.379 146.475 217.83 144.359C217.203 141.931 227.635 123.16 229.773 119.914C231.95 118.081 231.156 124.32 231.369 125.558C234.875 145.871 239.472 158.151 251.927 174.494C252.79 175.624 253.768 176.166 253.432 177.953C252.409 178.121 250.606 180.511 248.85 180.244H248.857Z" fill="#F3A07E"/>
<path d="M77.2453 414.768C76.8788 414.088 76.1456 413.546 74.2212 413.645C71.4567 413.79 67.8064 416.585 63.9193 416.753C61.7734 416.845 58.543 416.348 56.4964 415.714C47.7065 413.011 55.4349 411.239 56.4811 406.214C59.5129 391.628 40.9786 390.246 41.6506 404.756C41.8645 409.315 46.2097 412.614 38.1225 411.171C35.7933 410.751 32.7615 409.208 31.0432 407.566C29.2104 405.802 26.9805 399.509 23.7731 401.762C19.5347 404.725 30.6919 414.065 33.991 415.31C40.0011 417.585 42.9641 415.05 46.92 416.112C48.4855 416.532 50.975 419.044 53.0675 419.907C60.8569 423.13 69.5399 422.534 76.3977 417.906C77.421 417.219 77.8257 415.852 77.2453 414.768ZM47.9815 408.605C46.1334 408.162 45.1177 405.772 45.721 403.267C46.3243 400.762 48.3098 399.089 50.1579 399.532C52.0136 399.975 53.0217 402.366 52.4184 404.87C51.8227 407.383 49.8295 409.055 47.9815 408.605Z" fill="#F9C3AA"/>
<path d="M40.3753 179.48C43.4987 174.685 47.2636 171.034 49.9517 165.765C53.9381 157.968 58.1306 145.65 59.3678 136.997C60.2155 131.087 59.5511 124.809 61.3686 119.15C64.2247 123.06 66.3554 128.33 68.234 132.904C69.2268 135.317 73.5186 145.306 73.0986 146.849C72.6557 148.483 66.5005 153.019 64.8204 154.89C58.7187 161.702 49.6004 172.584 44.9497 180.236C43.4071 180.595 41.643 179.488 40.3677 179.473L40.3753 179.48Z" fill="#F3A07E"/>
<path d="M234.348 321.523L231.301 322.287C232.82 326.075 230.583 326.182 230.59 326.441C230.606 326.945 231.606 328.06 231.293 328.389C229.812 329.962 229.766 326.059 229.017 326.877C228.758 327.152 228.437 329.175 226.719 329.549L229.01 329.939C229.033 331.138 227.055 331.176 226.78 331.566C226.398 332.1 227.849 334.17 227.49 334.506C227.314 334.674 223.717 334.506 222.9 336.041C222.114 332.207 216.371 316.33 216.898 314.406C217.157 313.451 218.02 313.451 218.318 313.131C222.167 314.337 226.986 316.2 230.445 318.178C232.316 319.248 233.454 320.958 234.355 321.531L234.348 321.523ZM230.522 323.822C229.453 323.272 228.483 324.303 229.002 324.57C230.071 325.12 231.041 324.089 230.522 323.822Z" fill="#F6B296"/>
<path d="M238.93 387.199C238.754 387.359 238.372 389.177 237.059 390.284C232.041 394.515 226.81 396.737 220.602 398.654C222.419 393.912 224.58 385.328 225.184 380.326C224.756 377.791 226.856 378.776 228.04 379.379C231.851 381.319 234.928 385.488 238.93 387.199Z" fill="#CD8365"/>
<path d="M188.214 251.747C179.073 269.769 155.537 270.09 138.095 266.188C120.652 262.285 111.542 250.334 121.172 233.938C133.558 212.845 171.963 211.066 185.343 231.922C188.749 237.229 191.185 245.889 188.214 251.747ZM138.629 237.626C135.888 238.527 135.857 246.997 137.698 249.013C144.021 255.954 147.854 234.587 138.629 237.626ZM169.176 237.619C166.274 238.581 165.197 246.775 168.687 249.326C176.202 254.817 177.133 234.976 169.176 237.619Z" fill="#F6B296"/>
<path d="M93.061 221.475C93.313 221.734 92.4653 224.43 93.7941 225.713C94.3974 226.293 98.903 227.783 99.6973 228.539C100.491 229.295 100.316 230.967 100.827 231.303C101.668 231.845 102.34 231.593 104.615 233.22C106.143 234.312 107.624 234.488 107.479 235.702C107.334 236.916 107.701 238.092 108.418 239.077C109.197 240.154 109.19 241.704 107.578 241.345C107.273 242.705 108.67 241.827 109.098 242.109C110.053 242.728 107.578 242.835 107.525 243.262C107.372 244.538 108.754 245.821 109.06 247.203C109.243 248.035 109.77 248.7 110.427 249.242C111.137 249.822 110.618 251.518 109.709 253.06C109.121 254.053 107.701 254.229 107.54 254.862C107.128 256.497 108.502 258.772 108.342 258.895C108.166 259.024 107.174 258.673 106.715 258.979C104.913 260.147 103.21 260.338 103.057 260.483C102.805 260.72 103.195 262.492 102.607 263.461C101.5 265.302 98.1088 265.722 99.934 270.357C97.5743 269.403 95.016 267.44 94.5807 271.121C93.3282 271.457 94.1377 269.769 93.4581 269.578C90.7929 268.83 92.4653 271.663 90.0215 271.129V268.074C87.4632 267.333 89.0899 270.227 88.1047 270.38C85.9588 270.701 84.5766 269.219 82.7209 268.883C79.3225 268.257 77.0391 270.609 77.7952 265.783C74.7405 265.439 77.9174 269.09 73.9845 268.066C74.3587 266.745 76.3366 266.371 74.7558 265.393C72.4877 263.988 69.0893 263.95 66.7754 263.545C65.9354 263.4 67.226 260.178 64.0567 261.193C64.072 259.597 67.1725 260.178 67.73 259.528C67.814 259.429 67.898 259.154 67.982 258.788C68.2493 257.543 67.2336 256.504 65.9583 256.489C64.0415 256.466 62.957 252.587 62.0559 251.976C60.9486 251.22 57.8863 251.105 56.42 250.494C56.6338 248.906 60.0016 249.998 60.834 248.807C61.4526 247.913 63.064 241.674 62.4148 240.681C62.0177 240.07 58.8256 239.948 58.7034 239.81C57.8939 238.909 60.6049 235.129 62.5218 235.992C62.8196 234.602 61.2388 235.511 61.002 235.236C59.7114 233.709 62.5599 233.716 62.5676 233.281C62.5752 232.571 61.2464 230.417 61.7657 229.898C62.285 229.379 66.2485 231.326 67.058 230.578C67.8675 229.829 67.9515 225.324 71.3574 225.377C71.892 225.385 71.8462 227.172 72.9153 227.546C75.4125 228.432 78.0319 225.438 77.8104 223.017L77.9861 223.216C78.9483 224.316 80.3917 224.766 81.8426 224.621C84.1718 224.384 88.7233 227.057 89.2579 226.08C89.4259 225.774 89.0593 224.323 89.4946 223.239C89.7619 222.582 92.3813 220.772 93.0762 221.482L93.061 221.475Z" fill="#F9C3AA"/>
<path d="M217.539 219.963C217.799 220.169 216.432 221.963 216.776 222.238C217.165 222.559 218.929 221.559 219.861 221.895C222.244 222.742 221.404 228.684 226.253 225.377C227.307 224.652 225.749 222.391 228.215 223.017C230.14 226.454 228.078 233.014 234.332 230.646C231.759 236.015 236.417 234.625 237.387 236.007C238.082 236.993 235.081 238.726 235.02 240.979C234.997 241.796 237.83 243.339 237.448 246.187C237.364 246.798 233.783 247.844 235.104 248.975C235.646 249.44 238.609 247.913 238.151 250.112C234.248 253.243 233.783 252.503 235.86 257.375C232.897 256.023 233.057 257.367 231.186 258.467C230.415 258.918 229.071 258.834 228.987 258.91C227.383 260.338 231.652 260.621 231.278 262.324C230.652 265.119 226.894 263.293 226.703 263.484C226.344 263.843 227.864 265.691 227.139 266.562C226.352 267.509 224.718 266.974 223.847 267.509C223.381 267.799 223.343 269.143 222.404 269.471C220.495 270.136 216.837 268.693 215.6 270.365C215.111 271.029 215.5 273.962 213.729 272.641C213.645 272.58 213.599 271.365 212.919 270.808C211.873 269.945 209.948 269.311 209.345 268.616C208.665 267.845 208.727 266.279 208.223 265.92C207.986 265.752 202.968 264.347 202.678 264.332C201.327 264.279 197.615 266.363 199.44 262.904C199.463 262.858 199.517 262.805 199.601 262.743C200.685 261.85 200.639 260.132 199.417 259.437C198.921 259.154 199.196 257.971 198.211 256.443C196.706 254.114 193.583 252.594 194.018 248.768C194.163 247.47 195.393 246.103 195.339 244.751C195.294 243.598 192.346 239.757 193.109 239.047C193.262 238.902 194.629 239.299 195.194 238.902C195.973 238.359 196.004 236.107 196.172 235.977C196.615 235.641 198.157 237 198.448 236.748C199.86 235.503 197.012 235.129 196.913 234.747C196.141 231.685 198.31 232.311 199.127 230.967C199.891 229.707 200.41 225.767 202.503 226.171C203.129 226.293 204.534 228.172 205.321 227.592C205.511 227.447 206.451 223.46 206.978 223.14C207.932 222.559 210.3 223.315 211.705 223.01C212.301 222.88 212.087 221.566 212.575 221.597C213.064 221.627 213.92 222.506 214.393 222.2C214.569 222.086 215.668 218.458 217.547 219.963L217.539 219.963ZM197.684 239.054C196.851 238.222 195.332 239.742 196.164 240.574C196.997 241.407 198.516 239.887 197.684 239.054ZM198.837 240.574V241.338C199.333 241.086 199.333 240.826 198.837 240.574ZM222.511 265.775V266.539C223.007 266.287 223.007 266.027 222.511 265.775ZM220.594 267.31C219.762 266.478 218.242 267.998 219.074 268.83C219.907 269.662 221.426 268.143 220.594 267.31Z" fill="#F9C3AA"/>
<path d="M108.159 206.354C118.865 204.857 120.24 228.386 109.472 229.165C97.8645 230.005 97.7728 207.813 108.159 206.354Z" fill="#855A47"/>
<path d="M195.775 205.789C205.435 205.82 206.94 231.12 192.735 228.333C185.129 226.843 184.999 205.758 195.775 205.789Z" fill="#855A47"/>
<path d="M154.926 432.256C164.128 431.721 173.254 429.308 182.418 428.445C174.522 433.943 165.22 440.129 155.69 442.183C155.399 438.9 155.422 435.539 154.926 432.256Z" fill="#F3A07E"/>
<path d="M88.9371 427.399C97.8874 429.59 107.319 429.965 116.338 431.836C107.174 434.776 99.0481 438.09 89.3343 437.25C90.0216 434.027 88.4484 430.682 88.9371 427.399Z" fill="#F3A07E"/>
<path d="M106.616 169.744C108.991 169.369 113.718 169.316 114.856 171.844C116.162 174.746 106.96 174.058 105.264 174.494C103.829 174.868 101.324 176.693 100.01 177.64C99.0481 178.327 94.069 184.482 93.0762 180.603C92.0071 176.464 103.034 170.301 106.624 169.744L106.616 169.744Z" fill="#935F49"/>
<path d="M205.45 180.099C205.229 179.969 204.687 178.266 203.847 177.541C201.495 175.509 197.249 173.058 194.14 172.875C192.567 172.783 185.824 174.807 188.123 170.301C190.933 164.787 207.146 171.981 208.833 177.9C209.49 180.198 206.947 180.954 205.458 180.099L205.45 180.099Z" fill="#935F49"/>
<path d="M60.2308 255.848C61.0632 256.68 62.5829 255.16 61.7505 254.328C60.9181 253.495 59.3983 255.015 60.2308 255.848Z" fill="#F9C3AA"/>
<path d="M86.1956 223.773C87.028 224.606 88.5477 223.086 87.7153 222.254C86.8829 221.421 85.3632 222.941 86.1956 223.773Z" fill="#F9C3AA"/>
<path d="M237.402 348.244C238.472 348.794 239.441 347.763 238.922 347.496C237.853 346.946 236.883 347.977 237.402 348.244Z" fill="#FACBB5"/>
<path d="M245.039 381.853C241.335 381.975 239.487 384.343 240.64 379.165C240.724 378.776 241.732 378.921 241.816 378.424C241.946 377.584 242.214 372.155 241.984 371.926C241.458 371.391 239.014 372.643 238.189 372.315C239.105 370.742 242.191 366.87 238.945 367.336C238.601 366.022 240.488 366.985 240.511 366.183C240.541 365.114 239.602 363.96 238.96 363.136C243.443 362.754 240.984 360.509 241.167 358.63C241.205 358.195 244.107 358.103 242.756 356.652C242.519 356.392 241.488 357.416 240.923 357.309C239.716 357.087 238.808 351.169 241.228 352.062C241.626 350.413 238.899 352.276 238.945 350.55L240.808 349.787C239.426 349.176 240.633 346.923 240.48 346.747C239.487 345.64 233.462 347.71 235.134 342.914C241.496 345.037 237.792 341.921 238.242 341.425C238.548 341.096 240.068 341.944 239.701 340.63C234.035 338.347 241.167 334.788 241.259 331.863C241.312 330.237 236.891 332.49 237.425 330.321C238.609 328.656 238.853 329.343 240.259 329.763C242.336 330.382 242.152 331.352 243.519 332.215L244.291 328.396C259.518 342.807 258.472 366.618 245.054 381.853H245.039Z" fill="#FACBB5"/>
<path d="M236.257 339.088C236.753 338.836 236.753 338.576 236.257 338.324V339.088Z" fill="#FACBB5"/>
<path d="M229.002 324.57C230.071 325.12 231.041 324.089 230.522 323.822C229.453 323.272 228.483 324.303 229.002 324.57Z" fill="#F9C3AA"/>
<path d="M168.687 249.326C176.202 254.817 177.133 234.976 169.176 237.619C166.266 238.581 165.197 246.775 168.687 249.326Z" fill="#935F49"/>
<path d="M138.629 237.626C147.854 234.587 144.013 255.954 137.698 249.013C135.865 246.997 135.888 238.535 138.629 237.626Z" fill="#935F49"/>
<path d="M219.074 268.83C219.907 269.662 221.426 268.143 220.594 267.31C219.762 266.478 218.242 267.998 219.074 268.83Z" fill="#FBCFBB"/>
<path d="M196.164 240.574C196.997 241.407 198.516 239.887 197.684 239.054C196.851 238.222 195.332 239.742 196.164 240.574Z" fill="#FBCFBB"/>
<path d="M198.837 241.338C199.333 241.086 199.333 240.826 198.837 240.574V241.338Z" fill="#FBCFBB"/>
<path d="M222.511 266.539C223.007 266.287 223.007 266.027 222.511 265.775V266.539Z" fill="#FBCFBB"/>
<path d="M78.2686 323.936C75.9853 327.32 78.1541 327.9 78.093 328.144C77.9708 328.633 76.7642 329.511 76.9933 329.901C78.1083 331.749 78.9712 327.946 79.5363 328.9C79.7273 329.229 79.6203 331.268 81.2241 331.993L78.9025 331.894C78.6276 333.062 80.552 333.513 80.7429 333.948C81.0026 334.551 79.1545 336.27 79.4371 336.682C79.5745 336.881 83.1256 337.469 83.5991 339.141C70.5479 352.399 75.9776 357.156 84.63 365.831C85.5846 363.441 78.6581 383.159 77.3752 383.503C73.2437 384.602 71.3345 390.193 67.0656 391.033C65.4772 388.787 54.1443 382.525 52.342 379.303C55.9389 380.204 57.2524 382.9 57.2066 377.592C57.2066 377.187 56.1909 377.126 56.2138 376.622C56.2596 375.774 57.1379 370.413 57.4128 370.23C58.039 369.818 60.162 371.551 61.0479 371.406C60.4828 369.68 58.2757 365.243 61.3533 366.381C61.9643 365.167 59.9176 365.717 60.0627 364.93C60.2613 363.876 61.4144 362.952 62.2163 362.273C57.9168 360.967 60.7882 359.279 61.002 357.401C61.0555 356.973 58.2376 356.27 59.8642 355.132C60.1544 354.934 60.941 356.14 61.5137 356.156C62.7432 356.194 64.8662 350.596 62.3156 350.963C62.2697 349.267 64.5455 351.658 64.8662 349.962L63.2091 348.824C64.6906 348.519 63.9804 346.06 64.1713 345.923C65.3779 345.052 70.8305 348.328 70.2043 343.288C63.5374 344.036 67.814 341.761 67.478 341.18C67.2489 340.791 65.5841 341.31 66.2179 340.096C72.2356 339.05 66.0117 334.078 66.531 331.199C66.8212 329.595 70.6701 332.726 70.6014 330.496C69.7919 328.618 69.4101 329.244 67.9438 329.359C65.7826 329.527 65.7521 330.519 64.24 331.069L64.2858 327.174C68.2187 324.777 71.3269 324.059 75.4354 322.531L78.2534 323.921L78.2686 323.936ZM69.8988 339.324L70.0592 338.576C69.5246 338.721 69.4712 338.973 69.8988 339.324ZM66.8594 348.038C67.4245 347.885 66.6914 346.679 65.5306 346.992C64.9655 347.144 65.6986 348.351 66.8594 348.038Z" fill="#F9C3AA"/>
<path d="M78.6276 314.933C82.4307 313.726 88.1353 317.644 92.1522 317.27C92.3813 317.644 93.2213 317.827 93.2748 318.812C93.3893 320.805 84.4391 335.132 82.866 338.714C82.3925 337.041 78.8414 336.453 78.7039 336.254C78.4214 335.85 80.2695 334.131 80.0098 333.521C79.8265 333.078 77.8945 332.635 78.1694 331.466L80.4909 331.566C78.8872 330.84 78.9941 328.801 78.8032 328.473C78.2381 327.518 77.3752 331.329 76.2602 329.473C76.0235 329.084 77.2377 328.205 77.3599 327.717C77.421 327.465 75.2521 326.884 77.5355 323.509L74.7176 322.119C75.7103 321.752 76.5809 315.582 78.6352 314.925L78.6276 314.933ZM79.292 326.227C79.8571 326.075 79.124 324.868 77.9632 325.181C77.3981 325.334 78.1312 326.541 79.292 326.227Z" fill="#F6B296"/>
<path d="M85.4319 362.762C91.022 368.97 99.1856 379.677 96.444 388.696C94.9396 393.621 88.5171 390.238 87.7305 391.017C86.5392 392.193 91.3962 400.777 84.8973 402.304C79.5516 403.557 75.718 401.518 71.7851 399.12C68.7686 397.279 66.4088 394.515 65.1106 391.224C64.9197 390.735 64.7975 390.376 64.8204 390.246C64.9502 389.345 74.771 378.783 76.4511 376.294C78.8796 372.682 80.2542 368.397 82.3848 365.045C83.0721 363.96 84.0344 362.723 85.4395 362.754L85.4319 362.762Z" fill="#CD8365"/>
<path d="M85.4319 362.762C84.0267 362.731 83.0645 363.968 82.3772 365.053C78.3221 358.531 66.0805 356.308 75.5729 348.702C77.2071 347.389 85.0959 332.031 85.9588 336.033C86.3941 338.057 81.7663 345.251 78.6887 350.069C77.3293 352.2 77.7417 354.98 79.6127 356.683C81.6746 358.561 83.4845 360.593 85.4319 362.762Z" fill="#F3A07E"/>
<path d="M73.9768 309.305C74.9543 309.182 75.9242 309.473 76.7948 309.893L92.3049 317.697C88.2804 316.437 81.3386 317.392 77.7875 315.803C75.3362 314.704 75.2445 312.611 73.9768 311.985C72.7091 311.359 70.9756 312.008 70.1585 310.832C70.945 310.526 73.6714 309.343 73.9768 309.305Z" fill="#F3A07E"/>
<path d="M172.842 277.78C175.331 279.796 169.474 284.394 167.832 285.417C160.44 290.014 147.877 290.091 140.577 285.218C138.667 283.943 131.069 275.917 135.3 274.871C138.308 274.122 140.103 278.483 142.226 280.132C147.541 284.256 156.705 284.47 162.922 282.347C165.51 281.461 171.093 276.375 172.834 277.78H172.842Z" fill="#935F49"/>
<path d="M47.9165 82.1892C29.3173 71.2901 29.401 44.5486 47.9165 33.5955C66.3782 22.5586 90.0129 36.5135 89.9591 57.9223C90.1146 79.409 66.3064 93.0404 47.9165 82.1892ZM69.9246 71.6436C80.3844 65.7117 80.3246 50.067 69.8648 44.1411C59.3452 37.9336 46.2001 45.8069 46.1822 57.9223C46.0865 70.3134 59.381 77.6234 69.9246 71.6436Z" fill="#F3A07E"/>
<path d="M108.259 31.4564V84.8855H96.0592V31.4564C96.0592 31.067 96.5077 30.8573 96.8067 31.1089C99.9046 33.7034 104.414 33.7034 107.512 31.1089C107.811 30.8632 108.259 31.073 108.259 31.4564Z" fill="#F3A07E"/>
<path d="M145.218 84.8855V50.9718C145.32 45.9566 140.895 41.5227 135.889 41.6246C130.883 41.5227 126.458 45.9566 126.559 50.9718V84.8855H114.359V50.9718C114.359 47.0591 115.316 43.4641 117.23 40.1865C125.597 25.8661 146.086 25.7942 154.428 40.1865C156.342 43.4641 157.299 47.0591 157.299 50.9718V84.8855H145.218Z" fill="#F3A07E"/>
<path d="M175.719 2.79755V84.8855H163.519V4.59509C163.519 2.6118 165.127 1 167.107 1H173.925C174.917 1 175.719 1.8029 175.719 2.79755ZM192.823 84.8855L167.346 41.265C177.77 47.6643 190.676 41.2051 192.697 29.6529C192.99 27.9213 194.479 26.645 196.232 26.645H203.295C204.323 26.645 205.149 27.5078 205.089 28.5324C204.592 38.9103 198.056 48.7908 188.876 53.3685L206.937 84.8855H192.823Z" fill="#F3A07E"/>
<path d="M218.957 82.1892C200.358 71.2901 200.442 44.5486 218.957 33.5955C237.419 22.5586 261.054 36.5135 261 57.9223C261.155 79.409 237.347 93.0404 218.957 82.1892ZM240.965 71.6436C251.425 65.7117 251.366 50.067 240.906 44.1411C230.386 37.9336 217.241 45.8069 217.223 57.9223C217.127 70.3134 230.422 77.6234 240.965 71.6436Z" fill="#F3A07E"/>
<path d="M108.714 22.1152C108.714 25.7402 105.777 28.6822 102.159 28.6822C93.4696 28.3347 93.4696 15.8957 102.159 15.5541C105.777 15.5541 108.714 18.4961 108.714 22.1212V22.1152Z" fill="#F3A07E"/>
<path d="M46.9165 81.1892C28.3173 70.2901 28.401 43.5486 46.9165 32.5955C65.3782 21.5586 89.0129 35.5135 88.9591 56.9223C89.1146 78.409 65.3064 92.0404 46.9165 81.1892ZM68.9246 70.6436C79.3844 64.7117 79.3246 49.067 68.8648 43.1411C58.3452 36.9336 45.2001 44.8069 45.1822 56.9223C45.0865 69.3134 58.381 76.6234 68.9246 70.6436Z" fill="#FBCFBC"/>
<path d="M107.259 30.4564V83.8855H95.0592V30.4564C95.0592 30.067 95.5077 29.8573 95.8067 30.1089C98.9046 32.7034 103.414 32.7034 106.512 30.1089C106.811 29.8632 107.259 30.073 107.259 30.4564Z" fill="#FBCFBC"/>
<path d="M144.218 83.8855V49.9718C144.32 44.9566 139.895 40.5227 134.889 40.6246C129.883 40.5227 125.458 44.9566 125.559 49.9718V83.8855H113.359V49.9718C113.359 46.0591 114.316 42.4641 116.23 39.1865C124.597 24.8661 145.086 24.7942 153.428 39.1865C155.342 42.4641 156.299 46.0591 156.299 49.9718V83.8855H144.218Z" fill="#FBCFBC"/>
<path d="M174.719 1.79755V83.8855H162.519V3.59509C162.519 1.6118 164.127 0 166.107 0H172.925C173.917 0 174.719 0.802904 174.719 1.79755ZM191.823 83.8855L166.346 40.265C176.77 46.6643 189.676 40.2051 191.697 28.6529C191.99 26.9213 193.479 25.645 195.232 25.645H202.295C203.323 25.645 204.149 26.5078 204.089 27.5324C203.592 37.9103 197.056 47.7908 187.876 52.3685L205.937 83.8855H191.823Z" fill="#FBCFBC"/>
<path d="M217.957 81.1892C199.358 70.2901 199.442 43.5486 217.957 32.5955C236.419 21.5586 260.054 35.5135 260 56.9223C260.155 78.409 236.347 92.0404 217.957 81.1892ZM239.965 70.6436C250.425 64.7117 250.366 49.067 239.906 43.1411C229.386 36.9336 216.241 44.8069 216.223 56.9223C216.127 69.3134 229.422 76.6234 239.965 70.6436Z" fill="#FBCFBC"/>
<path d="M107.714 21.1152C107.714 24.7402 104.777 27.6822 101.159 27.6822C92.4696 27.3347 92.4696 14.8957 101.159 14.5541C104.777 14.5541 107.714 17.4961 107.714 21.1212V21.1152Z" fill="#FBCFBC"/>
</svg>
