<svg width="228" height="86" viewBox="0 0 228 86" fill="none" xmlns="http://www.w3.org/2000/svg">
<g clip-path="url(#clip0_4_864)">
<path d="M14.9165 82.1892C-3.68271 71.2901 -3.59898 44.5486 14.9165 33.5955C33.3782 22.5586 57.0129 36.5135 56.9591 57.9223C57.1146 79.409 33.3064 93.0404 14.9165 82.1892ZM36.9246 71.6436C47.3844 65.7117 47.3246 50.067 36.8648 44.1411C26.3451 37.9336 13.2001 45.8068 13.1822 57.9223C13.0865 70.3134 26.381 77.6234 36.9246 71.6436Z" fill="#F3A07E"/>
<path d="M75.2593 31.4564V84.8855H63.0591V31.4564C63.0591 31.067 63.5077 30.8573 63.8067 31.1089C66.9046 33.7034 71.4138 33.7034 74.5117 31.1089C74.8107 30.8632 75.2593 31.073 75.2593 31.4564Z" fill="#F3A07E"/>
<path d="M112.218 84.8855V50.9718C112.32 45.9566 107.895 41.5227 102.889 41.6245C97.8833 41.5227 93.4578 45.9566 93.5594 50.9718V84.8855H81.3593V50.9718C81.3593 47.0591 82.3162 43.464 84.2299 40.1865C92.5966 25.8661 113.086 25.7942 121.428 40.1865C123.342 43.464 124.299 47.0591 124.299 50.9718V84.8855H112.218Z" fill="#F3A07E"/>
<path d="M142.719 2.79755V84.8855H130.519V4.59509C130.519 2.6118 132.127 1 134.107 1H140.925C141.917 1 142.719 1.8029 142.719 2.79755ZM159.823 84.8855L134.346 41.265C144.77 47.6643 157.676 41.2051 159.697 29.6529C159.99 27.9213 161.479 26.645 163.232 26.645H170.295C171.323 26.645 172.149 27.5078 172.089 28.5324C171.592 38.9103 165.056 48.7908 155.876 53.3685L173.937 84.8855H159.823Z" fill="#F3A07E"/>
<path d="M185.957 82.1892C167.358 71.2901 167.442 44.5486 185.957 33.5955C204.419 22.5586 228.054 36.5135 228 57.9223C228.155 79.409 204.347 93.0404 185.957 82.1892ZM207.965 71.6436C218.425 65.7117 218.365 50.067 207.906 44.1411C197.386 37.9336 184.241 45.8068 184.223 57.9223C184.127 70.3134 197.422 77.6234 207.965 71.6436Z" fill="#F3A07E"/>
<path d="M75.7138 22.1152C75.7138 25.7402 72.7774 28.6822 69.1592 28.6822C60.4696 28.3347 60.4696 15.8957 69.1592 15.5541C72.7774 15.5541 75.7138 18.4961 75.7138 22.1212V22.1152Z" fill="#F3A07E"/>
</g>
<g clip-path="url(#clip1_4_864)">
<path d="M13.9165 81.1892C-4.68271 70.2901 -4.59898 43.5486 13.9165 32.5955C32.3782 21.5586 56.0129 35.5135 55.9591 56.9223C56.1146 78.409 32.3064 92.0404 13.9165 81.1892ZM35.9246 70.6436C46.3844 64.7117 46.3246 49.067 35.8648 43.1411C25.3451 36.9336 12.2001 44.8068 12.1822 56.9223C12.0865 69.3134 25.381 76.6234 35.9246 70.6436Z" fill="#FBCFBC"/>
<path d="M74.2593 30.4564V83.8855H62.0591V30.4564C62.0591 30.067 62.5077 29.8573 62.8067 30.1089C65.9046 32.7034 70.4138 32.7034 73.5117 30.1089C73.8107 29.8632 74.2593 30.073 74.2593 30.4564Z" fill="#FBCFBC"/>
<path d="M111.218 83.8855V49.9718C111.32 44.9566 106.895 40.5227 101.889 40.6245C96.8833 40.5227 92.4578 44.9566 92.5594 49.9718V83.8855H80.3593V49.9718C80.3593 46.0591 81.3162 42.464 83.2299 39.1865C91.5966 24.8661 112.086 24.7942 120.428 39.1865C122.342 42.464 123.299 46.0591 123.299 49.9718V83.8855H111.218Z" fill="#FBCFBC"/>
<path d="M141.719 1.79755V83.8855H129.519V3.59509C129.519 1.6118 131.127 0 133.107 0H139.925C140.917 0 141.719 0.802904 141.719 1.79755ZM158.823 83.8855L133.346 40.265C143.77 46.6643 156.676 40.2051 158.697 28.6529C158.99 26.9213 160.479 25.645 162.232 25.645H169.295C170.323 25.645 171.149 26.5078 171.089 27.5324C170.592 37.9103 164.056 47.7908 154.876 52.3685L172.937 83.8855H158.823Z" fill="#FBCFBC"/>
<path d="M184.957 81.1892C166.358 70.2901 166.442 43.5486 184.957 32.5955C203.419 21.5586 227.054 35.5135 227 56.9223C227.155 78.409 203.347 92.0404 184.957 81.1892ZM206.965 70.6436C217.425 64.7117 217.365 49.067 206.906 43.1411C196.386 36.9336 183.241 44.8068 183.223 56.9223C183.127 69.3134 196.422 76.6234 206.965 70.6436Z" fill="#FBCFBC"/>
<path d="M74.7138 21.1152C74.7138 24.7402 71.7774 27.6822 68.1592 27.6822C59.4696 27.3347 59.4696 14.8957 68.1592 14.5541C71.7774 14.5541 74.7138 17.4961 74.7138 21.1212V21.1152Z" fill="#FBCFBC"/>
</g>
<defs>
<clipPath id="clip0_4_864">
<rect width="227" height="85" fill="white" transform="translate(1 1)"/>
</clipPath>
<clipPath id="clip1_4_864">
<rect width="227" height="85" fill="white"/>
</clipPath>
</defs>
</svg>
